<?xml version="1.0" standalone="no"?>
<!DOCTYPE svg PUBLIC "-//W3C//DTD SVG 1.1//EN" "http://www.w3.org/Graphics/SVG/1.1/DTD/svg11.dtd" >
<svg>
<metadata>
Created by FontForge 20110222 at Mon Aug 18 11:39:36 2014
 By Orthosie Webhosting
Copyright (c) 2012 by Vasiliy Shishkin. All rights reserved.
</metadata>
<defs>
<font id="SunlineRegular" horiz-adv-x="553" >
  <font-face 
    font-family="SunlineRegular"
    font-weight="400"
    font-stretch="normal"
    units-per-em="1000"
    panose-1="2 0 5 3 3 0 0 2 0 4"
    ascent="750"
    descent="-250"
    x-height="526"
    cap-height="700"
    bbox="-10 -194 1015 888"
    underline-thickness="50"
    underline-position="-50"
    unicode-range="U+0020-2116"
  />
<missing-glyph horiz-adv-x="299" 
 />
    <glyph glyph-name=".notdef" horiz-adv-x="299" 
 />
    <glyph glyph-name=".null" horiz-adv-x="0" 
 />
    <glyph glyph-name="nonmarkingreturn" horiz-adv-x="333" 
 />
    <glyph glyph-name="space" unicode=" " horiz-adv-x="270" 
 />
    <glyph glyph-name="exclam" unicode="!" horiz-adv-x="326" 
d="M81 157h164v-156h-164v156zM53 700h220l-52 -478h-117z" />
    <glyph glyph-name="quotedbl" unicode="&#x22;" horiz-adv-x="459" 
d="M77 700h163l-99 -277h-103zM266 700h164l-101 -277h-102z" />
    <glyph glyph-name="numbersign" unicode="#" horiz-adv-x="663" 
d="M610 510v-105h-90l-17 -112h107v-105h-123l-31 -187h-120l34 187h-128l-31 -187h-120l32 187h-70v105h86l19 112h-105v105h123l32 190h114l-29 -190h129l31 190h118l-31 -190h70zM384 293l19 112h-127l-20 -112h128z" />
    <glyph glyph-name="dollar" unicode="$" horiz-adv-x="640" 
d="M546 700v-145h-164v-129q215 0 215 -212q0 -92 -56.5 -152t-158.5 -61v-60h-117v60h-191v145h191v133h-24q-100 0 -149 60.5t-49 148.5q0 92 48 152t154 60h20v60h117v-60h164zM265 426v129h-34q-32 0 -32 -67q0 -21 7 -41.5t25 -20.5h34zM382 279v-133h12q49 0 49 68
q0 27 -11.5 47t-40.5 18h-9z" />
    <glyph glyph-name="percent" unicode="%" horiz-adv-x="683" 
d="M510 279q74 0 109 -38t35 -104q0 -141 -144 -141q-143 0 -143 141q0 65 34.5 103.5t108.5 38.5zM510 69q31 0 42 18t11 50t-11 51t-42 19q-51 0 -51 -70q0 -68 51 -68zM173 706q75 0 110 -39t35 -105t-35 -105.5t-110 -39.5q-72 0 -108 40t-36 105t36 104.5t108 39.5z
M173 493q55 0 55 69q0 68 -55 68q-52 0 -52 -68q0 -69 52 -69zM506 700h122l-450 -699h-119z" />
    <glyph glyph-name="ampersand" unicode="&#x26;" horiz-adv-x="643" 
d="M515 700v-145h-208q-43 0 -62 -15t-19 -52q0 -65 79 -65h77v-130h-88q-40 0 -63.5 -21.5t-23.5 -52.5q0 -37 17 -55t56 -18h160v277h141v-422h-301q-107 0 -172 51t-65 149q0 57 25.5 98t68.5 60q-76 52 -76 136q-4 100 59 152.5t171 52.5h224z" />
    <glyph glyph-name="quotesingle" unicode="'" horiz-adv-x="272" 
d="M78 700h165l-101 -277h-104z" />
    <glyph glyph-name="parenleft" unicode="(" horiz-adv-x="315" 
d="M201 297q0 -192 95 -402h-110q-129 177 -129 402q0 228 129 403h110q-95 -211 -95 -403z" />
    <glyph glyph-name="parenright" unicode=")" horiz-adv-x="314" 
d="M112 297q0 189 -93 403h109q129 -175 129 -403q0 -225 -129 -402h-109q93 213 93 402z" />
    <glyph glyph-name="asterisk" unicode="*" horiz-adv-x="499" 
d="M67 612l142 -69l-20 157h123l-23 -157l141 69l40 -119l-156 -27l109 -113l-98 -74l-77 141l-72 -141l-101 74l111 113l-157 27z" />
    <glyph glyph-name="plus" unicode="+" horiz-adv-x="501" 
d="M472 367v-127h-158v-158h-125v158h-160v127h160v158h125v-158h158z" />
    <glyph glyph-name="comma" unicode="," horiz-adv-x="273" 
d="M69 160h166l-102 -276h-104z" />
    <glyph glyph-name="hyphen" unicode="-" horiz-adv-x="360" 
d="M331 376v-152h-302v152h302z" />
    <glyph glyph-name="period" unicode="." horiz-adv-x="245" 
d="M38 160h169v-159h-169v159z" />
    <glyph glyph-name="slash" unicode="/" horiz-adv-x="329" 
d="M213 700h116l-215 -765h-114z" />
    <glyph glyph-name="zero" unicode="0" horiz-adv-x="676" 
d="M338 707q86 0 145 -26.5t89.5 -77.5t43 -111.5t12.5 -143.5q0 -64 -7.5 -114.5t-27 -97t-51.5 -77t-83.5 -48.5t-120.5 -18q-85 0 -143.5 26t-89.5 76.5t-44 111t-13 141.5q0 83 12.5 143.5t43.5 111.5t89.5 77.5t144.5 26.5zM338 139q39 0 64.5 16t38.5 47t17.5 65
t4.5 81q0 48 -5 82.5t-17.5 66t-38.5 47.5t-64 16t-63.5 -16.5t-38 -47.5t-17.5 -66t-5 -82q0 -46 4.5 -80t17.5 -65t38.5 -47.5t63.5 -16.5z" />
    <glyph glyph-name="one" unicode="1" horiz-adv-x="379" 
d="M29 607q60 2 105.5 29.5t62.5 63.5h115v-700h-159v511h-124v96z" />
    <glyph glyph-name="two" unicode="2" horiz-adv-x="548" 
d="M505 0h-466v145l219 199q1 1 18 16.5t20.5 19t17 18t18 22t12 21t10 26t2.5 25.5q0 67 -61 67h-56q-65 0 -67 -78h-133q-1 53 11.5 93.5t33 63.5t49 37.5t54 19.5t53.5 5h49q213 0 213 -203q0 -68 -28.5 -119t-96.5 -109l-153 -128h281v-141z" />
    <glyph glyph-name="three" unicode="3" horiz-adv-x="548" 
d="M140 417l164 142h-245v141h426v-141l-167 -135v-6q100 -4 149 -49.5t46 -156.5q-2 -212 -218 -212h-49q-34 0 -68.5 11t-68 34t-54 67.5t-20.5 104.5h154q2 -77 66 -77h46q29 0 47.5 21t18.5 55q0 50 -20 69.5t-71 19.5h-136v112z" />
    <glyph glyph-name="four" unicode="4" horiz-adv-x="641" 
d="M545 0h-159v252h-100q-118 0 -178 49.5t-60 158.5v240h158v-242q0 -65 73 -65h107v307h159v-307h58v-141h-58v-252z" />
    <glyph glyph-name="five" unicode="5" horiz-adv-x="577" 
d="M491 700v-141h-262v-125h72q61 0 101.5 -8.5t73.5 -32t48 -68t15 -113.5q0 -42 -9.5 -76.5t-32 -66.5t-67.5 -50.5t-109 -18.5h-49q-34 0 -68.5 11t-67.5 34t-53.5 67.5t-19.5 104.5h151q5 -77 68 -77h45q30 0 48 21t18 55q0 50 -19.5 69.5t-70.5 19.5h-231v395h419z" />
    <glyph glyph-name="six" unicode="6" horiz-adv-x="600" 
d="M509 559h-214q-86 0 -86 -95v-30h116q120 0 180.5 -47t59.5 -163q-2 -104 -58 -164t-158 -60h-85q-41 0 -77 11t-68.5 35t-51.5 69t-19 106v240q0 67 22 116.5t58 74.5t74 36.5t79 11.5h228v-141zM335 141q71 0 69 75q-1 38 -18 56.5t-57 18.5h-120v-74q0 -76 68 -76h58z
" />
    <glyph glyph-name="seven" unicode="7" horiz-adv-x="514" 
d="M485 554l-195 -554h-186l217 559h-292v141h456v-146z" />
    <glyph glyph-name="eight" unicode="8" horiz-adv-x="585" 
d="M291 -7q-114 0 -183.5 51.5t-69.5 163.5q0 55 27 98.5t62 66.5q-30 21 -48.5 57.5t-18.5 79.5q0 54 18 93.5t51 61.5t73 32t89 10q68 0 118 -17t83 -62.5t33 -117.5q0 -42 -19 -79t-49 -58q36 -23 63 -66.5t27 -98.5q0 -112 -70.5 -163.5t-185.5 -51.5zM291 570
q-43 0 -63 -16.5t-19 -60.5q1 -36 24 -55.5t58 -19.5q37 0 60.5 19.5t24.5 55.5q1 44 -20 60.5t-65 16.5zM291 297q-43 0 -68 -17t-26 -63q-1 -48 24.5 -70t69.5 -22q46 0 72 22t25 70q-1 46 -26.5 63t-70.5 17z" />
    <glyph glyph-name="nine" unicode="9" horiz-adv-x="589" 
d="M80 141h216q86 0 86 94v31h-111q-116 0 -177 54t-59 171q2 102 56 155.5t158 53.5h76q41 0 77.5 -11t68.5 -35.5t51 -69.5t19 -107v-239q0 -67 -22 -116t-58 -74t-74 -36.5t-78 -11.5h-229v141zM262 559q-71 0 -69 -77q1 -38 18 -56.5t56 -18.5h115v74q0 35 -17 56.5
t-51 21.5h-52z" />
    <glyph glyph-name="colon" unicode=":" horiz-adv-x="245" 
d="M38 525h169v-158h-169v158zM38 160h169v-159h-169v159z" />
    <glyph glyph-name="semicolon" unicode=";" horiz-adv-x="272" 
d="M63 525h164v-158h-164v158zM66 160h168l-104 -276h-101z" />
    <glyph glyph-name="less" unicode="&#x3c;" horiz-adv-x="519" 
d="M490 543v-113l-367 -169l367 -168v-111l-461 211v139z" />
    <glyph glyph-name="equal" unicode="=" horiz-adv-x="497" 
d="M468 452v-117h-439v117h439zM468 240v-117h-439v117h439z" />
    <glyph glyph-name="greater" unicode="&#x3e;" horiz-adv-x="522" 
d="M29 430v113l464 -211v-139l-464 -211v111l367 168z" />
    <glyph glyph-name="question" unicode="?" horiz-adv-x="513" 
d="M29 555v145h223q106 0 169 -50.5t63 -144.5q0 -41 -12 -72t-36 -51t-44.5 -31.5t-51.5 -23.5q-23 -9 -34.5 -15t-25.5 -17.5t-20 -29t-6 -43.5h-140q-3 105 101 166q10 5 31 15t30.5 15.5t21.5 15.5t17 23t4 31q0 37 -20 52t-64 15h-206zM105 157h167v-156h-167v156z" />
    <glyph glyph-name="at" unicode="@" horiz-adv-x="943" 
d="M690 101q37 0 67 39t44 83t19 84q20 155 -61.5 244.5t-237.5 89.5q-175 0 -269.5 -89t-121.5 -270q-26 -185 60.5 -292.5t272.5 -107.5q73 0 150.5 19.5t132.5 53.5l28 -54q-67 -43 -150.5 -67.5t-163.5 -24.5q-217 0 -329.5 121t-88.5 349q21 208 149 325.5t333 117.5
q190 -2 297 -124.5t77 -313.5q-20 -129 -88 -208q-65 -79 -165 -75q-40 0 -66.5 22.5t-39.5 52.5q-22 -22 -39 -35.5t-50 -26.5t-71 -13q-175 0 -141 223l22 139q15 81 69.5 121.5t137.5 40.5h243l-56 -344q-8 -33 0.5 -56.5t35.5 -23.5zM550 398h-90q-51 0 -63 -53
l-22 -160q-4 -24 7 -42t36 -18q33 2 58.5 19.5t38.5 38.5z" />
    <glyph glyph-name="A" unicode="A" horiz-adv-x="675" 
d="M214 116l-27 -116h-168l149 600q14 60 55 85.5t114 25.5t114 -25.5t55 -85.5l150 -600h-169l-26 116h-247zM337 575q-13 0 -17 -4t-7 -14l-66 -297h182l-68 297q-2 10 -7 14t-17 4z" />
    <glyph glyph-name="B" unicode="B" horiz-adv-x="626" 
d="M67 0v700h264q108 0 173 -52t62 -150q-3 -93 -75 -141q45 -17 71 -58t26 -98q0 -98 -68 -149.5t-176 -51.5h-277zM229 284v-143h124q71 0 71 76q0 67 -77 67h-118zM325 556h-96v-134h100q35 0 56.5 17t21.5 50q1 36 -19.5 51.5t-62.5 15.5z" />
    <glyph glyph-name="C" unicode="C" horiz-adv-x="534" 
d="M499 0h-200q-121 0 -186 60t-65 150v287q0 84 63 143.5t188 59.5h200v-146h-200q-39 0 -61.5 -23.5t-22.5 -61.5v-247q0 -31 23.5 -54t60.5 -23h200v-145z" />
    <glyph glyph-name="D" unicode="D" horiz-adv-x="650" 
d="M352 0h-285v700h285q125 0 187.5 -59.5t62.5 -143.5v-287q0 -90 -64.5 -150t-185.5 -60zM234 554v-409h118q38 0 61 23t23 54v247q0 39 -22 62t-62 23h-118z" />
    <glyph glyph-name="E" unicode="E" horiz-adv-x="562" 
d="M514 0h-217q-120 0 -184.5 60t-64.5 150v287q0 84 62.5 143.5t186.5 59.5h217v-146h-217q-39 0 -61 -23.5t-22 -61.5v-47h259v-145h-259v-55q0 -31 23 -54t60 -23h217v-145z" />
    <glyph glyph-name="F" unicode="F" horiz-adv-x="540" 
d="M234 0h-167v512q0 88 53 138t150 50h241v-146h-234q-43 0 -43 -43v-102h211v-145h-211v-264z" />
    <glyph glyph-name="G" unicode="G" horiz-adv-x="629" 
d="M562 0h-266q-120 0 -184 60t-64 150v287q0 84 62.5 143.5t185.5 59.5h245v-146h-245q-38 0 -59.5 -23.5t-21.5 -61.5v-247q0 -31 22.5 -54t58.5 -23h116v126h-97v142h247v-413z" />
    <glyph glyph-name="H" unicode="H" horiz-adv-x="685" 
d="M233 700v-267h220v267h165v-700h-165v287h-220v-287h-166v700h166z" />
    <glyph glyph-name="I" unicode="I" horiz-adv-x="300" 
d="M233 700v-700h-166v700h166z" />
    <glyph glyph-name="J" unicode="J" horiz-adv-x="641" 
d="M574 700v-463q0 -117 -70.5 -181.5t-195.5 -64.5q-124 0 -197 65t-73 181v29h166v-32q0 -53 24.5 -73.5t79.5 -20.5q54 0 77.5 20t23.5 74v320h-341v146h506z" />
    <glyph glyph-name="K" unicode="K" horiz-adv-x="638" 
d="M234 700v-280h54l142 280h186l-178 -314q60 -30 103 -147l87 -239h-186l-52 179q-17 54 -41.5 78t-59.5 24h-55v-281h-167v700h167z" />
    <glyph glyph-name="L" unicode="L" horiz-adv-x="512" 
d="M235 145h248v-145h-416v700h168v-555z" />
    <glyph glyph-name="M" unicode="M" horiz-adv-x="912" 
d="M301 700l161 -466l160 466h223v-700h-161v313q0 51 16 206h-2l-179 -519h-137l-178 519h-2q14 -116 14 -206v-313h-149v700h234z" />
    <glyph glyph-name="N" unicode="N" horiz-adv-x="679" 
d="M204 497q19 -112 19 -225v-272h-156v700h204l141 -305q29 -60 54 -148h7q-17 112 -17 169v284h156v-700h-186l-140 296q-39 83 -72 201h-10z" />
    <glyph glyph-name="O" unicode="O" horiz-adv-x="725" 
d="M677 349q0 -81 -14.5 -142.5t-48.5 -111.5t-97 -76.5t-154 -26.5t-154 26.5t-97.5 76.5t-49 111.5t-14.5 142.5t15 143t49.5 112.5t97.5 77t153 26.5t153 -26.5t97 -77t49 -112.5t15 -143zM363 561q-40 0 -68.5 -12.5t-44 -30.5t-24 -48.5t-10.5 -56.5t-2 -64t2 -63
t10.5 -56t23.5 -49t44 -30.5t69 -12.5t68.5 12.5t43.5 30.5t23.5 49t10.5 56t2 63t-2 64t-10.5 56.5t-23.5 48.5t-43.5 30.5t-68.5 12.5z" />
    <glyph glyph-name="P" unicode="P" horiz-adv-x="630" 
d="M67 0v700h291q104 0 176 -65q67 -66 67 -174q0 -100 -51 -158q-67 -80 -192 -80h-125v-223h-166zM233 554v-186h125q41 0 58 21q18 21 18 72q0 53 -24 76q-23 17 -52 17h-125z" />
    <glyph glyph-name="Q" unicode="Q" horiz-adv-x="721" 
d="M676 349q0 -185 -78 -272l123 -114l-145 -82l-104 123q-50 -12 -110 -12q-91 0 -154 26.5t-97 76.5t-48.5 111.5t-14.5 142.5q0 82 14.5 143.5t49 112t97.5 77t153 26.5t153 -26.5t97 -77t49 -112.5t15 -143zM362 561q-40 0 -68 -12.5t-43 -30.5t-23.5 -48.5t-10.5 -56.5
t-2 -64t2 -63t10 -56t23 -49t43.5 -30.5t68.5 -12.5q34 0 59.5 8t41 24t25.5 33.5t14.5 44.5t6 48.5t1.5 52.5q0 38 -2 64t-10.5 56.5t-23.5 48.5t-43.5 30.5t-68.5 12.5z" />
    <glyph glyph-name="R" unicode="R" horiz-adv-x="666" 
d="M492 279l136 -279h-193l-96 239h-104v-239h-168v700h308q110 0 175.5 -65t61.5 -171q-2 -72 -36.5 -118t-83.5 -67zM235 554v-176h128q39 0 61 24.5t21 64.5q0 87 -75 87h-135z" />
    <glyph glyph-name="S" unicode="S" horiz-adv-x="629" 
d="M534 554h-290q-18 0 -25 -21.5t-7 -43.5q0 -21 7.5 -42.5t24.5 -21.5h125q217 0 217 -211q0 -92 -58 -153t-159 -61h-295v145h295q52 0 52 69q0 65 -52 65h-126q-101 0 -150.5 60.5t-49.5 149.5q0 90 48.5 150.5t152.5 60.5h290v-146z" />
    <glyph glyph-name="T" unicode="T" horiz-adv-x="541" 
d="M512 554h-157v-554h-167v554h-159v146h483v-146z" />
    <glyph glyph-name="U" unicode="U" horiz-adv-x="709" 
d="M642 700v-470q0 -114 -79 -176.5t-207 -62.5q-127 0 -208 63t-81 176v470h166v-465q0 -95 123 -95q120 0 120 95v465h166z" />
    <glyph glyph-name="V" unicode="V" horiz-adv-x="672" 
d="M477 700h176l-211 -700h-210l-213 700h179l100 -349q23 -83 36 -172h5q12 88 38 172z" />
    <glyph glyph-name="W" unicode="W" horiz-adv-x="903" 
d="M196 700l73 -356q9 -39 22 -131h4q5 60 19 125l20 96q13 55 44 72.5t75 17.5q20 0 35 -3t32.5 -11t30 -27.5t18.5 -48.5l20 -96q12 -49 20 -125h4q14 103 20 131l76 356h175l-155 -700h-202l-66 342q-2 8 -8 8q-8 0 -10 -8l-66 -342h-199l-159 700h177z" />
    <glyph glyph-name="X" unicode="X" horiz-adv-x="632" 
d="M610 700l-214 -340l236 -360h-194l-122 216l-120 -216h-196l236 360l-213 340h190l103 -199l105 199h189z" />
    <glyph glyph-name="Y" unicode="Y" horiz-adv-x="631" 
d="M398 305v-305h-164v305l-234 395h183l133 -246l133 246h182z" />
    <glyph glyph-name="Z" unicode="Z" horiz-adv-x="619" 
d="M576 554l-330 -409h330v-145h-533v145l330 409h-330v146h533v-146z" />
    <glyph glyph-name="bracketleft" unicode="[" horiz-adv-x="327" 
d="M67 722h231v-109h-106v-631h106v-105h-231v845z" />
    <glyph glyph-name="backslash" unicode="\" horiz-adv-x="327" 
d="M0 700h112l215 -765h-114z" />
    <glyph glyph-name="bracketright" unicode="]" horiz-adv-x="325" 
d="M29 722h229v-845h-229v105h102v631h-102v109z" />
    <glyph glyph-name="asciicircum" unicode="^" horiz-adv-x="582" 
d="M430 312l-139 285l-133 -285h-139l168 388h209l167 -388h-133z" />
    <glyph glyph-name="underscore" unicode="_" horiz-adv-x="533" 
d="M0 -138v68h533v-68h-533z" />
    <glyph glyph-name="grave" unicode="`" horiz-adv-x="296" 
d="M29 733h165l73 -208h-104z" />
    <glyph glyph-name="a" unicode="a" horiz-adv-x="542" 
d="M479 359v-359h-268q-73 0 -117 37t-44 107v44q0 131 161 131h122v27q0 55 -57 55h-201v125h213q86 0 138.5 -42.5t52.5 -124.5zM333 212h-103q-38 0 -38 -34v-28q0 -35 40 -35h101v97z" />
    <glyph glyph-name="b" unicode="b" horiz-adv-x="554" 
d="M508 359v-193q0 -83 -51.5 -124.5t-139.5 -41.5h-255v700h152v-174h103q87 0 139 -42t52 -125zM214 394v-264h91q25 0 39 15t14 39v155q0 25 -14 40t-39 15h-91z" />
    <glyph glyph-name="c" unicode="c" horiz-adv-x="426" 
d="M48 359q0 83 52 125t139 42h152v-132h-140q-24 0 -38 -15t-14 -39v-153q0 -25 14 -40t38 -15h140v-132h-152q-88 0 -139.5 42.5t-51.5 125.5v191z" />
    <glyph glyph-name="d" unicode="d" 
d="M491 700v-700h-262q-89 0 -136 44.5t-47 112.5v215q0 65 46 109.5t137 44.5h111v174h151zM340 130v264h-90q-25 0 -39 -15t-14 -40v-159q0 -20 15 -35t38 -15h90z" />
    <glyph glyph-name="e" unicode="e" horiz-adv-x="526" 
d="M48 168v213q0 68 44 106.5t112 38.5h113q73 0 117 -38t44 -107v-80q0 -100 -109 -100h-175v-24q0 -55 57 -55h202v-122h-214q-88 0 -139.5 42.5t-51.5 125.5zM233 407q-39 0 -39 -36v-65h124q19 0 19 19v46q0 36 -40 36h-64z" />
    <glyph glyph-name="f" unicode="f" horiz-adv-x="377" 
d="M263 707h115v-117h-75q-30 0 -41 -15t-11 -49h95v-132h-92v-394h-150v394h-76v132h76q0 90 37 135.5t122 45.5z" />
    <glyph glyph-name="g" unicode="g" 
d="M491 526v-534q0 -72 -53 -120t-135 -48h-239v133h215q29 0 44.5 15t15.5 40v28h-112q-91 0 -136.5 45t-45.5 108v174q0 68 47 113.5t135 45.5h264zM339 394h-91q-23 0 -37.5 -15t-14.5 -35v-118q0 -25 13.5 -40t38.5 -15h91v223z" />
    <glyph glyph-name="h" unicode="h" horiz-adv-x="580" 
d="M521 359v-359h-152v339q0 25 -14 40t-38 15h-104v-394h-151v700h151v-174h116q87 0 139.5 -42.5t52.5 -124.5z" />
    <glyph glyph-name="i" unicode="i" horiz-adv-x="275" 
d="M213 526v-526h-151v526h151zM213 700v-116h-151v116h151z" />
    <glyph glyph-name="j" unicode="j" horiz-adv-x="297" 
d="M233 526v-535q0 -83 -52 -125t-139 -42h-48v134h30q59 0 59 55v513h150zM233 700v-116h-150v116h150z" />
    <glyph glyph-name="k" unicode="k" horiz-adv-x="537" 
d="M62 700h152v-377h32l108 203h165l-136 -224q13 -6 23.5 -15t18 -23.5t11 -21.5t10 -25.5t6.5 -19.5l78 -197h-163l-44 145q-8 30 -27 44.5t-61 14.5h-21v-204h-152v700z" />
    <glyph glyph-name="l" unicode="l" horiz-adv-x="276" 
d="M62 700h151v-700h-151v700z" />
    <glyph glyph-name="m" unicode="m" horiz-adv-x="805" 
d="M474 394v-394h-144v394h-123v-394h-145v526h498q84 0 133.5 -42t49.5 -125v-359h-146v340q0 24 -13 39t-36 15h-74z" />
    <glyph glyph-name="n" unicode="n" horiz-adv-x="580" 
d="M514 359v-359h-152v339q0 25 -13.5 40t-38.5 15h-97v-394h-151v526h261q87 0 139 -42t52 -125z" />
    <glyph glyph-name="o" unicode="o" horiz-adv-x="566" 
d="M283 530q118 0 167 -43q39 -31 53.5 -86.5t14.5 -137.5q0 -170 -68 -226q-49 -42 -167 -42q-117 0 -168 42q-67 57 -67 226q0 168 67 224q50 43 168 43zM283 117q43 0 60 17q16 15 21.5 43t5.5 86t-5.5 86t-21.5 43q-17 16 -60 16q-41 0 -61 -16q-17 -15 -22 -42.5
t-5 -86.5t5 -86.5t22 -42.5q20 -17 61 -17z" />
    <glyph glyph-name="p" unicode="p" 
d="M62 -176v702h263q89 0 136 -45.5t47 -113.5v-216q0 -64 -45.5 -107.5t-137.5 -43.5h-111v-176h-152zM214 394v-264h90q25 0 39 15t14 39v160q0 20 -15 35t-38 15h-90z" />
    <glyph glyph-name="q" unicode="q" 
d="M492 -176h-151v176h-111q-92 0 -138 43.5t-46 107.5v216q0 68 47.5 113.5t136.5 45.5h262v-702zM341 394h-91q-23 0 -37.5 -15t-14.5 -35v-160q0 -24 14 -39t38 -15h91v264z" />
    <glyph glyph-name="r" unicode="r" horiz-adv-x="386" 
d="M62 359q0 83 51.5 125t138.5 42h115v-132h-102q-25 0 -38.5 -14.5t-13.5 -39.5v-340h-151v359z" />
    <glyph glyph-name="s" unicode="s" horiz-adv-x="501" 
d="M279 0h-213v126h217q31 0 31 40q0 16 -7.5 28t-23.5 12h-62q-89 0 -133 38t-44 123q-1 74 43.5 116.5t133.5 42.5h205v-126h-209q-16 0 -24 -11t-8 -27q0 -17 8 -30t24 -13h62q91 0 134.5 -37t44.5 -122q0 -75 -45 -117.5t-134 -42.5z" />
    <glyph glyph-name="t" unicode="t" horiz-adv-x="414" 
d="M93 168v232h-74v73q100 52 147 164h79v-111h112v-126h-112v-213q0 -25 13.5 -40t38.5 -15h79v-132h-92q-88 0 -139.5 42.5t-51.5 125.5z" />
    <glyph glyph-name="u" unicode="u" horiz-adv-x="580" 
d="M63 167v359h152v-339q0 -25 13.5 -40t38.5 -15h97v394h151v-526h-261q-87 0 -139 42t-52 125z" />
    <glyph glyph-name="v" unicode="v" horiz-adv-x="573" 
d="M288 124q9 62 39 160l68 242h168l-179 -526h-195l-179 526h168l68 -242q28 -98 37 -160h5z" />
    <glyph glyph-name="w" unicode="w" horiz-adv-x="775" 
d="M168 526l57 -297q5 -28 12 -93h3q4 32 16 91l29 128q16 86 102 86q85 0 105 -86l26 -128q11 -46 17 -91h4q6 69 11 93l57 297h149l-109 -526h-196l-56 285q0 9 -8 9q-6 0 -8 -9l-55 -285h-194l-111 526h149z" />
    <glyph glyph-name="x" unicode="x" horiz-adv-x="529" 
d="M183 526l82 -138l80 138h184l-180 -248l190 -278h-182l-92 162l-92 -162h-183l189 278l-181 248h185z" />
    <glyph glyph-name="y" unicode="y" horiz-adv-x="569" 
d="M61 526h152v-300q0 -25 13.5 -40t38.5 -15h90v355h153v-524q0 -84 -53 -131t-139 -47h-234v133h213q29 0 44.5 15t15.5 40v28h-111q-90 0 -136.5 45t-46.5 108v333z" />
    <glyph glyph-name="z" unicode="z" horiz-adv-x="496" 
d="M220 132h228v-132h-400v132l227 262h-227v132h400v-132z" />
    <glyph glyph-name="braceleft" unicode="{" horiz-adv-x="301" 
d="M77 29v170q0 29 -14 39.5t-44 10.5v100q31 0 44.5 9.5t13.5 39.5v171q0 66 37.5 109.5t123.5 43.5h44v-109h-44q-42 0 -42 -51v-167q0 -79 -61 -98q61 -12 61 -94v-167q0 -54 42 -54h44v-105h-44q-85 0 -123 44t-38 108z" />
    <glyph glyph-name="braceright" unicode="}" horiz-adv-x="302" 
d="M224 29q0 -64 -38 -108t-122 -44h-45v105h45q40 0 40 54v167q0 83 60 94q-60 18 -60 98v167q0 51 -40 51h-45v109h45q84 0 122 -43.5t38 -109.5v-171q0 -30 14 -39.5t45 -9.5v-100q-30 0 -44.5 -10.5t-14.5 -39.5v-170z" />
    <glyph glyph-name="asciitilde" unicode="~" horiz-adv-x="583" 
d="M29 322q68 81 143 95q65 13 135 -22q81 -35 126 -15q10 3 20 10t15 11t12.5 12.5t8.5 9.5l65 -56q-44 -76 -113 -98.5t-153 18.5q-110 53 -193 -24z" />
    <glyph glyph-name="currency" unicode="&#xa4;" horiz-adv-x="642" 
d="M261 1h-167v86h-84v70h84v543h280q98 0 173 -65q66 -65 66 -173q0 -99 -51 -155q-63 -78 -188 -78h-113v-72h77v-70h-77v-86zM374 555h-113v-185h113q38 0 57 18q16 21 16 74q0 57 -23 73q-18 20 -50 20z" />
    <glyph glyph-name="guillemotleft" unicode="&#xab;" horiz-adv-x="532" 
d="M288 44h-152l-107 217l107 219h152l-111 -219zM513 44h-153l-110 217l110 219h153l-112 -219z" />
    <glyph glyph-name="degree" unicode="&#xb0;" horiz-adv-x="364" 
d="M182 725q64 0 108.5 -45t44.5 -109q0 -65 -44.5 -109.5t-108.5 -44.5q-63 0 -108 45t-45 109t45 109t108 45zM182 630q-24 0 -41 -17.5t-17 -41.5t16.5 -41t41.5 -17t42.5 17t17.5 41t-17.5 41.5t-42.5 17.5z" />
    <glyph glyph-name="plusminus" unicode="&#xb1;" horiz-adv-x="498" 
d="M469 473v-123h-156v-160h-127v160h-157v123h157v160h127v-160h156zM469 125v-124h-440v124h440z" />
    <glyph glyph-name="paragraph" unicode="&#xb6;" horiz-adv-x="739" 
d="M518 571h-143v-764h-156v578h-39q-71 0 -115.5 44.5t-44.5 111.5q-2 69 43.5 114t116.5 45h492v-893h-154v764zM180 500h39v71h-39q-14 0 -23 -10t-9 -26q0 -13 9.5 -24t22.5 -11z" />
    <glyph glyph-name="guillemotright" unicode="&#xbb;" horiz-adv-x="529" 
d="M395 44h-151l109 217l-109 219h151l105 -219zM170 44h-151l108 217l-108 219h151l112 -219z" />
    <glyph glyph-name="afii10023" unicode="&#x401;" horiz-adv-x="563" 
d="M515 0h-216q-120 0 -185.5 60.5t-65.5 149.5v286q0 86 63 145t188 59h216v-144h-216q-40 0 -62.5 -24t-22.5 -62v-47h259v-146h-259v-54q0 -32 24 -55t61 -23h216v-145zM273 761h-140v127h140v-127zM487 761h-142v127h142v-127z" />
    <glyph glyph-name="afii10017" unicode="&#x410;" horiz-adv-x="675" 
d="M188 0h-169l149 601q15 58 56 84t113 26q73 0 114 -26t56 -84l149 -601h-169l-27 117h-246zM337 577q-13 0 -16.5 -4t-6.5 -15l-66 -297h180l-67 297q-2 10 -6.5 14.5t-17.5 4.5z" />
    <glyph glyph-name="afii10018" unicode="&#x411;" horiz-adv-x="632" 
d="M550 556h-317v-119h122q108 0 174 -58.5t64 -161.5q-2 -101 -67.5 -159t-170.5 -58h-288v700h483v-144zM355 145q74 0 71 78q0 37 -16 53.5t-55 16.5h-122v-148h122z" />
    <glyph glyph-name="afii10019" unicode="&#x412;" horiz-adv-x="625" 
d="M67 0v700h262q108 0 173.5 -52t62.5 -151q-1 -90 -75 -138q44 -17 70.5 -58.5t26.5 -99.5q-1 -98 -68.5 -149.5t-175.5 -51.5h-276zM227 285v-144h125q71 0 71 77q0 67 -78 67h-118zM324 558h-97v-135h101q35 0 56.5 17t21.5 50q0 68 -82 68z" />
    <glyph glyph-name="afii10020" unicode="&#x413;" horiz-adv-x="509" 
d="M232 556v-556h-165v700h413v-144h-248z" />
    <glyph glyph-name="afii10021" unicode="&#x414;" horiz-adv-x="721" 
d="M683 145v-281h-153l-13 136h-333l-10 -136h-155v281q20 0 35 8t23.5 18t15 30t9 32t6.5 37q8 54 15.5 123.5t11 119t7.5 111t5 76.5h475v-555h61zM455 145v411h-155q-2 -20 -9.5 -94t-13.5 -124.5t-16.5 -108.5t-21.5 -84h216z" />
    <glyph glyph-name="afii10022" unicode="&#x415;" horiz-adv-x="560" 
d="M512 0h-216q-120 0 -184 60t-64 150v286q0 86 62 145t186 59h216v-144h-216q-38 0 -60.5 -24t-22.5 -62v-47h259v-146h-259v-54q0 -32 23.5 -55t59.5 -23h216v-145z" />
    <glyph glyph-name="afii10024" unicode="&#x416;" horiz-adv-x="966" 
d="M562 700v-278h50l141 278h187l-178 -314q24 -12 45.5 -41t31 -50t23.5 -56l94 -239h-187l-56 179q-18 55 -41.5 79.5t-58.5 24.5h-51v-283h-159v283h-50q-70 0 -101 -104l-55 -179h-187l93 239q14 35 23.5 56t31.5 50t47 41l-179 314h186l143 -278h48v278h159z" />
    <glyph glyph-name="afii10025" unicode="&#x417;" horiz-adv-x="558" 
d="M40 700h227q108 0 170.5 -51.5t59.5 -151.5q-1 -87 -76 -138q42 -17 68 -58.5t26 -99.5q0 -99 -65 -150t-173 -51h-237v145h237q40 0 56.5 18t16.5 55q0 67 -78 67h-175v140h157q77 0 78 65q0 36 -20 51t-62 15h-210v144z" />
    <glyph glyph-name="afii10026" unicode="&#x418;" horiz-adv-x="669" 
d="M602 700v-700h-158v325q0 62 10 112h-3q-26 -63 -47 -101l-181 -336h-156v700h156v-325q0 -49 -9 -117h3q22 62 49 111l178 331h158z" />
    <glyph glyph-name="afii10027" unicode="&#x419;" horiz-adv-x="670" 
d="M305 826h60q15 0 27 12.5t12 27.5h106q0 -57 -36.5 -89.5t-90.5 -32.5h-96q-54 0 -90.5 32.5t-36.5 89.5h107q0 -15 11.5 -27.5t26.5 -12.5zM603 700v-700h-157v325q0 60 9 112h-4q-24 -64 -46 -101l-181 -336h-157v700h157v-325q0 -49 -9 -117h2q22 59 51 111l178 331
h157z" />
    <glyph glyph-name="afii10028" unicode="&#x41a;" horiz-adv-x="638" 
d="M234 700v-278h53l143 278h187l-180 -314q58 -27 103 -147l88 -239h-187l-51 179q-28 104 -101 104h-55v-283h-167v700h167z" />
    <glyph glyph-name="afii10029" unicode="&#x41b;" horiz-adv-x="668" 
d="M436 0v556h-153q-3 -25 -10.5 -116.5t-14.5 -162t-13 -96.5q-17 -75 -40.5 -113.5t-69 -57t-125.5 -16.5v145q49 -1 66.5 28t22.5 82q22 186 39 451h463v-700h-165z" />
    <glyph glyph-name="afii10030" unicode="&#x41c;" horiz-adv-x="914" 
d="M304 700l160 -467l159 467h224v-700h-160v314q0 85 15 205h-1l-179 -519h-138l-179 519h-2q15 -120 15 -205v-314h-151v700h237z" />
    <glyph glyph-name="afii10031" unicode="&#x41d;" horiz-adv-x="686" 
d="M234 700v-268h219v268h166v-700h-166v287h-219v-287h-167v700h167z" />
    <glyph glyph-name="afii10032" unicode="&#x41e;" horiz-adv-x="723" 
d="M675 350q0 -65 -8.5 -116t-30 -97t-56 -76.5t-90 -48.5t-128.5 -18q-91 0 -154 26t-97 76t-48.5 111.5t-14.5 142.5q0 82 14.5 143.5t49 111.5t97.5 76t153 26t152.5 -26t97 -76t49 -111.5t14.5 -143.5zM362 562q-40 0 -68 -12.5t-43.5 -30.5t-23.5 -49t-10 -56.5
t-2 -63.5t1.5 -63t10 -56t23.5 -49t43.5 -30.5t68.5 -12.5t68.5 12.5t43.5 30.5t23.5 49t10.5 56t2 63t-2 64t-10.5 56.5t-23.5 48.5t-43.5 30.5t-68.5 12.5z" />
    <glyph glyph-name="afii10033" unicode="&#x41f;" horiz-adv-x="670" 
d="M234 556v-556h-167v700h536v-700h-167v556h-202z" />
    <glyph glyph-name="afii10034" unicode="&#x420;" horiz-adv-x="628" 
d="M67 0v700h291q105 0 174 -66q67 -63 67 -171q0 -100 -49 -160q-69 -80 -192 -80h-124v-223h-167zM234 556v-188h124q41 0 57 21q18 21 18 74q0 51 -23 75q-20 18 -52 18h-124z" />
    <glyph glyph-name="afii10035" unicode="&#x421;" horiz-adv-x="533" 
d="M498 0h-198q-122 0 -187 60t-65 150v286q0 86 63 145t189 59h198v-144h-198q-40 0 -62 -23.5t-22 -62.5v-247q0 -32 22.5 -55t61.5 -23h198v-145z" />
    <glyph glyph-name="afii10036" unicode="&#x422;" horiz-adv-x="538" 
d="M509 556h-160v-556h-164v556h-156v144h480v-144z" />
    <glyph glyph-name="afii10037" unicode="&#x423;" horiz-adv-x="619" 
d="M120 145h110q41 0 59 19.5t27 58.5h-27q-117 0 -161 124l-118 353h177l84 -301q5 -18 15 -24.5t33 -6.5h32l79 332h179l-134 -491q-31 -114 -82 -161.5t-163 -47.5h-110v145z" />
    <glyph glyph-name="afii10038" unicode="&#x424;" horiz-adv-x="833" 
d="M495 646h82q111 0 174 -61.5t63 -168.5q0 -110 -61.5 -172.5t-175.5 -62.5h-82v-181h-159v181h-83q-113 0 -173.5 62.5t-60.5 172.5q0 107 62.5 168.5t171.5 61.5h83v102h159v-102zM336 317v193h-87q-74 0 -74 -91q0 -49 15.5 -75.5t58.5 -26.5h87zM495 317h85
q45 0 60 26t15 76q0 43 -16 67t-59 24h-85v-193z" />
    <glyph glyph-name="afii10039" unicode="&#x425;" horiz-adv-x="630" 
d="M608 700l-213 -340l235 -360h-196l-120 217l-119 -217h-195l234 360l-212 340h188l104 -199l105 199h189z" />
    <glyph glyph-name="afii10040" unicode="&#x426;" horiz-adv-x="702" 
d="M436 145v555h165v-555h63v-281h-152l-14 136h-431v700h166v-555h203z" />
    <glyph glyph-name="afii10041" unicode="&#x427;" horiz-adv-x="659" 
d="M592 0h-167v253h-113q-117 0 -186 60.5t-69 167.5v219h165v-219q0 -88 90 -88h113v307h167v-700z" />
    <glyph glyph-name="afii10042" unicode="&#x428;" horiz-adv-x="1021" 
d="M954 0h-887v700h166v-555h195v555h166v-555h195v555h165v-700z" />
    <glyph glyph-name="afii10043" unicode="&#x429;" horiz-adv-x="1053" 
d="M954 145h61v-281h-151l-14 136h-783v700h166v-555h195v555h165v-555h195v555h166v-555z" />
    <glyph glyph-name="afii10044" unicode="&#x42a;" horiz-adv-x="703" 
d="M145 556h-126v144h290v-251h125q108 0 174.5 -62.5t64.5 -167.5q-1 -100 -67 -159.5t-172 -59.5h-289v556zM434 141q74 0 74 84q-3 82 -74 82h-125v-166h125z" />
    <glyph glyph-name="afii10045" unicode="&#x42b;" horiz-adv-x="870" 
d="M803 700v-700h-166v700h166zM67 700h165v-251h116q106 0 172.5 -63t65.5 -167q-1 -100 -67.5 -159.5t-170.5 -59.5h-281v700zM348 141q71 0 71 84q0 82 -71 82h-116v-166h116z" />
    <glyph glyph-name="afii10046" unicode="&#x42c;" horiz-adv-x="627" 
d="M67 700h167v-251h125q107 0 173 -62.5t65 -167.5q-2 -100 -68 -159.5t-170 -59.5h-292v700zM359 141q73 0 71 84q0 82 -71 82h-125v-166h125z" />
    <glyph glyph-name="afii10047" unicode="&#x42d;" 
d="M38 0v145h215q39 0 61.5 23t22.5 55v54h-257v146h257v47q0 39 -22 62.5t-62 23.5h-215v144h215q127 0 189.5 -59t62.5 -145v-286q0 -90 -65.5 -150t-186.5 -60h-215z" />
    <glyph glyph-name="afii10048" unicode="&#x42e;" horiz-adv-x="1004" 
d="M341 423q11 135 81.5 209.5t223.5 74.5q89 0 151.5 -26.5t96 -76.5t48 -111.5t14.5 -142.5t-14 -142.5t-47.5 -112t-96 -77t-152.5 -26.5q-155 0 -224.5 74.5t-80.5 210.5h-107v-277h-167v700h167v-277h107zM646 562q-40 0 -68 -13t-42.5 -30.5t-22.5 -49.5t-9.5 -56
t-1.5 -63q0 -40 1.5 -63.5t9 -56t22 -50t42.5 -30.5t69 -13q40 0 68.5 13t43 31t23 49.5t10 56.5t1.5 63t-2 63t-10 56t-23 49.5t-43 31t-68 12.5z" />
    <glyph glyph-name="afii10049" unicode="&#x42f;" horiz-adv-x="655" 
d="M164 277q-48 19 -82.5 67t-36.5 121q-3 106 62 170.5t175 64.5h306v-700h-166v239h-103l-96 -239h-194zM422 556h-135q-75 0 -75 -92q0 -39 21.5 -62.5t59.5 -23.5h129v178z" />
    <glyph glyph-name="afii10065" unicode="&#x430;" horiz-adv-x="544" 
d="M482 359v-359h-269q-73 0 -116.5 37t-43.5 107v46q0 129 160 129h122v27q0 55 -58 55h-201v125h214q88 0 140 -42t52 -125zM335 214h-104q-38 0 -38 -36v-28q0 -35 40 -35h102v99z" />
    <glyph glyph-name="afii10066" unicode="&#x431;" horiz-adv-x="542" 
d="M206 182q0 -58 54 -58h40q25 0 39 14t14 39v106q0 52 -53 52h-94v-153zM207 458h102q87 0 139.5 -41.5t52.5 -126.5v-122q0 -85 -52.5 -126.5t-139.5 -41.5h-71q-77 0 -131 49t-54 125v304q0 56 17 96t47 60t58.5 28.5t64.5 12.5l165 15q63 8 79 22v-128q-15 -13 -59 -15
l-140 -9q-37 -3 -57.5 -18.5t-20.5 -52.5v-31z" />
    <glyph glyph-name="afii10067" unicode="&#x432;" horiz-adv-x="530" 
d="M62 526h247q161 0 161 -134v-35q0 -27 -15 -52t-39 -35v-3q35 -10 55.5 -36.5t20.5 -63.5v-22q0 -70 -44.5 -107.5t-117.5 -37.5h-268v526zM290 411h-82v-93h83q39 0 39 35v22q0 36 -40 36zM208 211v-96h101q40 0 40 37v24q0 35 -39 35h-102z" />
    <glyph glyph-name="afii10068" unicode="&#x433;" horiz-adv-x="434" 
d="M213 394v-394h-151v526h343v-132h-192z" />
    <glyph glyph-name="afii10069" unicode="&#x434;" horiz-adv-x="624" 
d="M204 123h178v280h-120q-3 -29 -10 -97q-17 -160 -48 -183zM535 526v-403h55v-255h-133l-13 132h-274l-13 -132h-140v241q21 7 37 21.5t25 27t16 40.5t9 38t6.5 44.5t4.5 38.5q8 69 18 207h402z" />
    <glyph glyph-name="afii10070" unicode="&#x435;" horiz-adv-x="516" 
d="M46 167v215q0 68 44 106t113 38h114q73 0 117 -37t44 -107v-80q0 -102 -108 -102h-178v-24q0 -25 15 -39.5t44 -14.5h208v-122h-221q-88 0 -140 42t-52 125zM233 408q-41 0 -41 -36v-65h127q18 0 18 18v47q0 36 -40 36h-64z" />
    <glyph glyph-name="afii10072" unicode="&#x436;" horiz-adv-x="783" 
d="M319 526h146v-202h25l112 202h155l-141 -223q48 -23 79 -104l78 -199h-162l-45 146q-11 31 -29.5 45.5t-60.5 14.5h-11v-206h-146v206h-14q-42 0 -61 -14.5t-27 -45.5l-45 -146h-162l77 199q31 81 79 104l-141 223h156l110 -202h28v202z" />
    <glyph glyph-name="afii10073" unicode="&#x437;" horiz-adv-x="451" 
d="M38 526h194q162 0 162 -134v-35q0 -27 -15 -52t-39 -35v-3q68 -20 68 -100v-22q0 -71 -44 -108t-118 -37h-208v122h189q40 0 40 36v18q0 35 -38 35h-138v107h123q38 0 38 35v22q0 36 -39 36h-175v115z" />
    <glyph glyph-name="afii10074" unicode="&#x438;" horiz-adv-x="596" 
d="M208 526v-222q0 -32 -12 -104h4q22 54 53 105l128 221h150v-526h-145v232q0 48 11 98h-4q-15 -48 -45 -96l-135 -234h-149v526h144z" />
    <glyph glyph-name="afii10075" unicode="&#x439;" horiz-adv-x="597" 
d="M277 642h41q16 0 26 12.5t10 28.5h94q0 -51 -32 -82.5t-91 -31.5h-54q-61 0 -92 31.5t-31 82.5h93q0 -15 10 -28t26 -13zM209 526v-222q0 -32 -12 -104h4q13 34 54 105l127 221h148v-526h-143v232q0 48 11 98h-4q-14 -42 -45 -96l-135 -234h-149v526h144z" />
    <glyph glyph-name="afii10076" unicode="&#x43a;" horiz-adv-x="538" 
d="M62 526h150v-202h33l108 202h164l-135 -223q13 -6 23.5 -15.5t18.5 -23t12 -22t10 -24.5t7 -19l75 -199h-161l-44 146q-10 31 -29 45.5t-61 14.5h-21v-206h-150v526z" />
    <glyph glyph-name="afii10077" unicode="&#x43b;" horiz-adv-x="592" 
d="M261 394q-1 -9 -4 -58.5t-5 -71.5t-7.5 -59.5t-12.5 -66.5q-27 -105 -100 -131q-37 -13 -122 -8v124q37 -2 53 8q33 24 41 92q3 29 12.5 157.5t10.5 145.5h403v-526h-151v394h-118z" />
    <glyph glyph-name="afii10078" unicode="&#x43c;" horiz-adv-x="765" 
d="M266 526l88 -268q19 -53 26 -106h4q8 58 25 106l88 268h204v-526h-131v235q0 59 13 157h-3l-130 -392h-136l-129 392h-3q13 -98 13 -157v-235h-131v526h202z" />
    <glyph glyph-name="afii10079" unicode="&#x43d;" horiz-adv-x="584" 
d="M522 526v-526h-151v199h-157v-199h-152v526h152v-195h157v195h151z" />
    <glyph glyph-name="afii10080" unicode="&#x43e;" horiz-adv-x="569" 
d="M285 531q116 0 169 -41q39 -33 53 -88t14 -140q0 -84 -14 -139t-53 -86q-51 -41 -169 -41q-117 0 -168 41q-69 56 -69 225t69 228q53 41 168 41zM285 117q44 0 62 17q16 14 21.5 42.5t5.5 85.5q0 59 -5.5 87.5t-21.5 42.5q-17 17 -62 17q-44 0 -61 -17q-16 -14 -21 -42
t-5 -88q0 -58 5 -86t21 -42q18 -17 61 -17z" />
    <glyph glyph-name="afii10081" unicode="&#x43f;" horiz-adv-x="583" 
d="M521 526v-526h-151v394h-157v-394h-151v526h459z" />
    <glyph glyph-name="afii10082" unicode="&#x440;" horiz-adv-x="556" 
d="M62 -175v701h262q89 0 136 -45t47 -114v-216q0 -63 -45.5 -107t-137.5 -44h-111v-175h-151zM213 395v-264h91q25 0 38.5 15t13.5 41v158q0 20 -15 35t-37 15h-91z" />
    <glyph glyph-name="afii10083" unicode="&#x441;" horiz-adv-x="429" 
d="M48 360q0 83 52 124.5t140 41.5h154v-132h-142q-53 0 -53 -54v-155q0 -24 14 -39t39 -15h142v-131h-154q-88 0 -140 42t-52 125v193z" />
    <glyph glyph-name="afii10084" unicode="&#x442;" horiz-adv-x="471" 
d="M24 526h423v-132h-135v-394h-152v394h-136v132z" />
    <glyph glyph-name="afii10085" unicode="&#x443;" horiz-adv-x="542" 
d="M234 -32l9 32q-90 1 -116 98l-117 428h150l107 -395h11l97 395h157l-151 -566q-20 -76 -53.5 -115t-103.5 -39h-86v133h51q14 0 27.5 8.5t17.5 20.5z" />
    <glyph glyph-name="afii10086" unicode="&#x444;" horiz-adv-x="832" 
d="M491 638v-112h109q89 0 136 -45t47 -114v-216q0 -63 -46 -107t-137 -44h-109v-175h-152v175h-110q-91 0 -137 44t-46 107v216q0 69 47 114t136 45h110v112h152zM491 395v-264h94q25 0 39 15t14 41v158q0 20 -15 35t-38 15h-94zM339 131v264h-96q-24 0 -39 -15t-15 -35
v-158q0 -26 14.5 -41t39.5 -15h96z" />
    <glyph glyph-name="afii10087" unicode="&#x445;" horiz-adv-x="534" 
d="M184 526l82 -137l81 137h186l-182 -250l193 -276h-187l-91 162l-92 -162h-184l191 276l-183 250h186z" />
    <glyph glyph-name="afii10088" unicode="&#x446;" horiz-adv-x="624" 
d="M208 132h167v394h148v-394h58v-264h-133l-13 132h-373v526h146v-394z" />
    <glyph glyph-name="afii10089" unicode="&#x447;" horiz-adv-x="561" 
d="M53 526h151v-180q0 -24 14 -39.5t38 -15.5h92v235h151v-526h-151v160h-113q-91 0 -136.5 48t-45.5 114v204z" />
    <glyph glyph-name="afii10090" unicode="&#x448;" horiz-adv-x="862" 
d="M210 123h147v403h147v-403h148v403h146v-526h-736v526h148v-403z" />
    <glyph glyph-name="afii10091" unicode="&#x449;" horiz-adv-x="897" 
d="M208 123h147v403h147v-403h148v403h148v-403h60v-255h-135l-11 132h-651v526h147v-403z" />
    <glyph glyph-name="afii10092" unicode="&#x44a;" horiz-adv-x="569" 
d="M110 394h-91v132h237v-181h109q73 0 124 -42.5t51 -111.5v-38q0 -70 -51 -111.5t-124 -41.5h-255v394zM256 229v-114h90q28 0 40 10.5t12 34.5v24q0 24 -12 34.5t-40 10.5h-90z" />
    <glyph glyph-name="afii10093" unicode="&#x44b;" horiz-adv-x="730" 
d="M668 526v-526h-152v526h152zM62 526h147v-181h97q73 0 123.5 -42.5t50.5 -111.5v-38q0 -70 -50 -111.5t-124 -41.5h-244v526zM209 229v-114h77q29 0 41 10.5t12 34.5v24q0 24 -12 34.5t-41 10.5h-77z" />
    <glyph glyph-name="afii10094" unicode="&#x44c;" horiz-adv-x="519" 
d="M62 526h146v-181h108q73 0 123.5 -42.5t50.5 -111.5v-38q0 -70 -50.5 -111.5t-123.5 -41.5h-254v526zM208 229v-114h90q27 0 39 10.5t12 34.5v24q0 24 -12 34.5t-39 10.5h-90z" />
    <glyph glyph-name="afii10095" unicode="&#x44d;" horiz-adv-x="456" 
d="M408 360v-193q0 -83 -52.5 -125t-140.5 -42h-172v123h160q25 0 39 15t14 39v32h-155v113h155v27q0 24 -14 39t-39 15h-160v123h172q88 0 140.5 -41.5t52.5 -124.5z" />
    <glyph glyph-name="afii10096" unicode="&#x44e;" horiz-adv-x="799" 
d="M209 526v-204h72q10 120 68 166q52 43 168 43q113 0 164 -44q70 -59 70 -225q0 -170 -69 -224q-50 -42 -165 -42q-118 0 -168 43q-60 46 -68 170h-72v-209h-147v526h147zM517 117q38 0 59 18q26 25 26 127q0 103 -28 128q-21 19 -57 19q-41 0 -62 -18q-16 -14 -21 -42
t-5 -87q0 -57 5 -84.5t21 -42.5q21 -18 62 -18z" />
    <glyph glyph-name="afii10097" unicode="&#x44f;" 
d="M491 0h-146v194h-60l-88 -194h-163l115 215q-105 27 -105 130v37q0 70 44 107t116 37h287v-526zM345 307v104h-119q-41 0 -41 -42v-19q0 -21 13 -32t33 -11h114z" />
    <glyph glyph-name="afii10071" unicode="&#x451;" horiz-adv-x="526" 
d="M48 166v215q0 69 42.5 107t112.5 38h114q73 0 117 -37t44 -108v-81q0 -100 -107 -100h-178v-24q0 -55 59 -55h208v-121h-221q-87 0 -139 42t-52 124zM235 408q-42 0 -42 -38v-65h126q18 0 18 19v46q0 38 -39 38h-63zM236 701v-113h-131v113h131zM418 701v-113h-129v113
h129z" />
    <glyph glyph-name="endash" unicode="&#x2013;" horiz-adv-x="472" 
d="M443 343v-133h-414v133h414z" />
    <glyph glyph-name="emdash" unicode="&#x2014;" horiz-adv-x="762" 
d="M733 332v-83h-704v83h704z" />
    <glyph glyph-name="quoteleft" unicode="&#x2018;" horiz-adv-x="270" 
d="M195 525h-166l100 275h103z" />
    <glyph glyph-name="quoteright" unicode="&#x2019;" horiz-adv-x="272" 
d="M78 700h165l-101 -277h-104z" />
    <glyph glyph-name="quotedblleft" unicode="&#x201c;" horiz-adv-x="459" 
d="M385 525h-169l104 275h101zM195 525h-166l100 275h103z" />
    <glyph glyph-name="quotedblright" unicode="&#x201d;" horiz-adv-x="459" 
d="M77 700h163l-99 -277h-103zM266 700h164l-101 -277h-102z" />
    <glyph glyph-name="bullet" unicode="&#x2022;" horiz-adv-x="444" 
d="M223 461q62 0 103.5 -43.5t41.5 -105.5t-41.5 -104.5t-103.5 -42.5t-104.5 42.5t-42.5 104.5t42.5 105.5t104.5 43.5z" />
    <glyph glyph-name="ellipsis" unicode="&#x2026;" horiz-adv-x="743" 
d="M38 160h165v-159h-165v159zM287 160h168v-159h-168v159zM537 160h168v-159h-168v159z" />
    <glyph glyph-name="Euro" unicode="&#x20ac;" horiz-adv-x="577" 
d="M539 146v-145h-179q-121 0 -185.5 59t-64.5 150v19h-100l23 93h77v41h-65l21 91h44v41q0 86 62.5 145.5t187.5 59.5h179v-145h-179q-40 0 -61 -23t-21 -62v-16h233l-22 -91h-211v-41h201l-20 -93h-181v-7q0 -32 22.5 -54t59.5 -22h179z" />
    <glyph glyph-name="afii61352" unicode="&#x2116;" horiz-adv-x="950" 
d="M208 464h-3q15 -88 15 -190v-273h-153v699h204l202 -441h4q-19 70 -19 193v248h152v-699h-191zM921 562q0 -69 -28 -107t-101 -38q-69 0 -96 38t-27 107q0 70 27 107t96 37q73 0 101 -37t28 -107zM792 633q-21 0 -31.5 -11t-13 -24t-2.5 -36q0 -21 2 -34.5t13.5 -25.5
t31.5 -12q17 0 28 6t15.5 18t6 22.5t1.5 25.5q0 23 -2.5 36t-14 24t-34.5 11zM678 317v71h226v-71h-226z" />
    </font>
</defs>
</svg>
