<?xml version="1.0" standalone="no"?>
<!DOCTYPE svg PUBLIC "-//W3C//DTD SVG 1.1//EN" "http://www.w3.org/Graphics/SVG/1.1/DTD/svg11.dtd" >
<svg>
<metadata>
Created by FontForge 20110222 at Mon Aug 18 11:39:44 2014
 By Orthosie Webhosting
Copyright (c) 2012 by Vasiliy Shishkin. All rights reserved.
</metadata>
<defs>
<font id="SunlineItalic" horiz-adv-x="553" >
  <font-face 
    font-family="SunlineItalic"
    font-weight="400"
    font-style="italic"
    font-stretch="normal"
    units-per-em="1000"
    panose-1="2 0 5 3 0 0 0 9 0 4"
    ascent="750"
    descent="-250"
    x-height="526"
    cap-height="700"
    bbox="-83 -194 1014 888"
    underline-thickness="50"
    underline-position="-50"
    slope="-12"
    unicode-range="U+0020-2116"
  />
<missing-glyph horiz-adv-x="299" 
 />
    <glyph glyph-name=".notdef" horiz-adv-x="299" 
 />
    <glyph glyph-name=".null" horiz-adv-x="0" 
 />
    <glyph glyph-name="nonmarkingreturn" horiz-adv-x="333" 
 />
    <glyph glyph-name="space" unicode=" " horiz-adv-x="270" 
 />
    <glyph glyph-name="exclam" unicode="!" horiz-adv-x="326" 
d="M55 157h164l-24 -156h-164zM113 700h220l-127 -478h-117z" />
    <glyph glyph-name="quotedbl" unicode="&#x22;" horiz-adv-x="459" 
d="M137 700h163l-143 -277h-103zM326 700h164l-145 -277h-102z" />
    <glyph glyph-name="numbersign" unicode="#" horiz-adv-x="667" 
d="M612 510v-105h-90l-17 -112h107v-105h-123l-31 -187h-120l34 187h-128l-31 -187h-120l32 187h-70v105h86l19 112h-105v105h123l32 190h114l-29 -190h129l31 190h118l-31 -190h70zM386 293l19 112h-127l-20 -112h128z" />
    <glyph glyph-name="dollar" unicode="$" horiz-adv-x="640" 
d="M606 700l-23 -145h-164l-20 -129q216 0 181 -212q-14 -92 -80 -152t-168 -61l-10 -60h-117l10 60h-191l23 145h191l21 133h-24q-100 0 -139.5 60.5t-25.5 148.5q14 92 71.5 152t163.5 60h20l10 60h117l-10 -60h164zM282 426l20 129h-34q-32 0 -42 -67q-5 -14 -0.5 -38
t22.5 -24h34zM376 279l-21 -133h12q49 0 59 68q5 27 -3 47t-38 18h-9z" />
    <glyph glyph-name="percent" unicode="%" horiz-adv-x="683" 
d="M504 279q74 0 102.5 -38t18.5 -104q-22 -141 -166 -141q-143 0 -121 141q23 142 166 142zM470 69q31 0 45 18t19 50q12 70 -42 70q-50 0 -62 -70q-11 -68 40 -68zM234 706q75 0 104 -39t19 -105t-51.5 -105.5t-116.5 -39.5q-72 0 -101.5 40t-19.5 105t52 104.5t114 39.5z
M201 493q53 0 66 69q10 68 -45 68q-52 0 -62 -68q-13 -69 41 -69zM566 700h122l-560 -699h-119z" />
    <glyph glyph-name="ampersand" unicode="&#x26;" horiz-adv-x="643" 
d="M575 700l-23 -145h-208q-43 0 -64 -15t-27 -52q-6 -34 12.5 -49.5t55.5 -15.5h77l-20 -130h-88q-40 0 -67 -21.5t-32 -52.5q-5 -37 9 -55t53 -18h160l43 277h141l-66 -422h-301q-107 0 -164 51t-42 149q10 57 41.5 98t77.5 60q-67 51 -54 136q12 100 83 152.5t179 52.5
h224z" />
    <glyph glyph-name="quotesingle" unicode="'" horiz-adv-x="272" 
d="M138 700h165l-145 -277h-104z" />
    <glyph glyph-name="parenleft" unicode="(" horiz-adv-x="315" 
d="M198 297q-31 -192 31 -402h-110q-101 177 -65 402q35 227 192 403h110q-128 -212 -158 -403z" />
    <glyph glyph-name="parenright" unicode=")" horiz-adv-x="314" 
d="M109 297q30 189 -30 403h109q102 -174 66 -403q-37 -226 -193 -402h-109q126 212 157 402z" />
    <glyph glyph-name="asterisk" unicode="*" horiz-adv-x="499" 
d="M113 612l132 -69l4 157h123l-47 -157l151 69l22 -119l-161 -27l91 -113l-109 -74l-55 141l-94 -141l-90 74l129 113l-152 27z" />
    <glyph glyph-name="plus" unicode="+" horiz-adv-x="501" 
d="M480 367l-20 -127h-158l-26 -158h-125l26 158h-160l20 127h160l25 158h125l-25 -158h158z" />
    <glyph glyph-name="comma" unicode="," horiz-adv-x="273" 
d="M44 160h166l-146 -276h-104z" />
    <glyph glyph-name="hyphen" unicode="-" horiz-adv-x="360" 
d="M340 376l-24 -152h-302l24 152h302z" />
    <glyph glyph-name="period" unicode="." horiz-adv-x="245" 
d="M13 160h169l-25 -159h-169z" />
    <glyph glyph-name="slash" unicode="/" horiz-adv-x="329" 
d="M273 700h116l-336 -765h-113z" />
    <glyph glyph-name="zero" unicode="0" horiz-adv-x="676" 
d="M399 707q86 0 141 -27.5t77 -75.5t26.5 -113.5t-10.5 -142.5q-13 -81 -35.5 -141.5t-61.5 -111t-102 -76.5t-148 -26t-139.5 27t-76.5 74.5t-27 112.5t10 141q13 83 35 143.5t61 111.5t101.5 77.5t148.5 26.5zM310 139q73 0 107.5 55t50.5 154q8 59 8 106t-25 76.5
t-75 29.5q-72 0 -106.5 -56t-50.5 -156q-8 -57 -8 -103.5t24.5 -76t74.5 -29.5z" />
    <glyph glyph-name="one" unicode="1" horiz-adv-x="379" 
d="M75 607q60 2 109.5 29.5t72.5 63.5h115l-110 -700h-159l80 511h-124z" />
    <glyph glyph-name="two" unicode="2" horiz-adv-x="548" 
d="M455 0h-466l22 145l251 199q4 3 18.5 14.5t20 16t18 16t18.5 18t15.5 18t14.5 20.5t9.5 21t6.5 24q12 67 -50 67h-56q-65 0 -79 -78h-133q7 53 26 93.5t43 63.5t54.5 37.5t57 19.5t54.5 5h49q213 0 181 -203q-10 -67 -47 -118t-114 -110l-173 -128h281z" />
    <glyph glyph-name="three" unicode="3" horiz-adv-x="548" 
d="M156 417l186 142h-245l22 141h426l-22 -141l-188 -135l-1 -6q100 -4 141.5 -49.5t20.5 -156.5q-36 -212 -251 -212h-49q-27 0 -53 6.5t-53 21.5t-44.5 40t-27 62t0.5 87h154q-9 -77 54 -77h46q29 0 51 21t27 55q8 50 -9 69.5t-68 19.5h-136z" />
    <glyph glyph-name="four" unicode="4" horiz-adv-x="641" 
d="M495 0h-159l39 252h-100q-118 0 -170 49.5t-35 158.5l38 240h158l-38 -242q-11 -65 63 -65h107l48 307h159l-48 -307h58l-23 -141h-58z" />
    <glyph glyph-name="five" unicode="5" horiz-adv-x="577" 
d="M551 700l-22 -141h-262l-20 -125h72q40 0 69.5 -3.5t57 -12.5t43 -25t28 -40.5t11.5 -59t-6 -81.5q-34 -212 -251 -212h-49q-34 0 -66.5 11t-62.5 34t-43 67.5t-3 104.5h151q-7 -77 56 -77h45q30 0 51.5 21t26.5 55q8 50 -8.5 69.5t-67.5 19.5h-231l62 395h419z" />
    <glyph glyph-name="six" unicode="6" horiz-adv-x="600" 
d="M547 559h-214q-85 0 -101 -95l-5 -30h116q120 0 173.5 -47.5t33.5 -162.5q-18 -104 -83.5 -164t-167.5 -60h-85q-41 0 -75.5 11t-63 35t-40.5 69t-2 106l38 240q8 54 29.5 97t49 69t62 43t66 23.5t63.5 6.5h228zM307 141q71 0 81 75q5 38 -9 56.5t-54 18.5h-120l-12 -74
q-12 -76 56 -76h58z" />
    <glyph glyph-name="seven" unicode="7" horiz-adv-x="514" 
d="M522 554l-282 -554h-186l305 559h-292l22 141h456z" />
    <glyph glyph-name="eight" unicode="8" horiz-adv-x="585" 
d="M239 -7q-114 0 -175.5 51.5t-43.5 163.5q9 56 42.5 99t73.5 66q-27 21 -40 57.5t-6 79.5q11 72 51 117.5t92 62.5t119 17q105 0 162.5 -46t40.5 -151q-7 -42 -31.5 -79t-57.5 -58q32 -23 52 -66.5t11 -98.5q-18 -112 -96.5 -163.5t-193.5 -51.5zM331 570q-43 0 -66 -16.5
t-28 -60.5q-5 -36 15 -55.5t55 -19.5q37 0 63.5 19.5t33.5 55.5q8 44 -10.5 60.5t-62.5 16.5zM288 297q-94 0 -107 -80q-16 -92 79 -92q98 0 112 92q6 46 -16.5 63t-67.5 17z" />
    <glyph glyph-name="nine" unicode="9" horiz-adv-x="589" 
d="M52 141h216q86 0 101 94l5 31h-111q-240 0 -201 225q37 209 247 209h76q41 0 75.5 -11t63 -35.5t40.5 -69.5t2 -107l-38 -239q-11 -67 -40.5 -116t-69.5 -74t-79.5 -36.5t-79.5 -11.5h-229zM300 559q-71 0 -81 -77q-5 -37 9 -56t53 -19h115l12 74q6 35 -8 56.5t-48 21.5
h-52z" />
    <glyph glyph-name="colon" unicode=":" horiz-adv-x="245" 
d="M71 525h169l-25 -158h-169zM13 160h169l-25 -159h-169z" />
    <glyph glyph-name="semicolon" unicode=";" horiz-adv-x="272" 
d="M96 525h164l-25 -158h-164zM41 160h168l-148 -276h-101z" />
    <glyph glyph-name="less" unicode="&#x3c;" horiz-adv-x="519" 
d="M526 543l-18 -113l-394 -169l340 -168l-17 -111l-428 211l22 139z" />
    <glyph glyph-name="equal" unicode="=" horiz-adv-x="497" 
d="M489 452l-18 -117h-439l18 117h439zM456 240l-19 -117h-439l19 117h439z" />
    <glyph glyph-name="greater" unicode="&#x3e;" horiz-adv-x="522" 
d="M47 430l18 113l430 -211l-22 -139l-497 -211l17 111l394 168z" />
    <glyph glyph-name="question" unicode="?" horiz-adv-x="513" 
d="M66 555l23 145h223q106 0 161 -50.5t40 -144.5q-6 -41 -23 -72t-44 -51t-49.5 -31.5t-55.5 -23.5q-25 -9 -37 -15t-28 -17.5t-24.5 -29t-12.5 -43.5h-140q13 104 127 166q11 5 34 15t33 15.5t24 15.5t20.5 23t8.5 31q6 37 -12 52t-62 15h-206zM79 157h167l-24 -156h-167z
" />
    <glyph glyph-name="at" unicode="@" horiz-adv-x="947" 
d="M692 101q37 0 67 39t44 83t19 84q20 155 -61.5 244.5t-237.5 89.5q-175 0 -269.5 -89t-121.5 -270q-26 -185 60.5 -292.5t272.5 -107.5q73 0 150.5 19.5t132.5 53.5l28 -54q-67 -43 -150.5 -67.5t-163.5 -24.5q-217 0 -329.5 121t-88.5 349q21 208 149 325.5t333 117.5
q190 -2 297 -124.5t77 -313.5q-20 -129 -88 -208q-65 -79 -165 -75q-40 0 -66.5 22.5t-39.5 52.5q-22 -22 -39 -35.5t-50 -26.5t-71 -13q-175 0 -141 223l22 139q15 81 69.5 121.5t137.5 40.5h243l-56 -344q-8 -33 0.5 -56.5t35.5 -23.5zM552 398h-90q-51 0 -63 -53
l-22 -160q-4 -24 7 -42t36 -18q33 2 58.5 19.5t38.5 38.5z" />
    <glyph glyph-name="A" unicode="A" horiz-adv-x="675" 
d="M182 116l-45 -116h-168l244 600q23 60 68 85.5t118 25.5t110.5 -25.5t41.5 -85.5l55 -600h-169l-8 116h-247zM378 575q-20 0 -27 -18l-113 -297h182l-21 297q-1 18 -21 18z" />
    <glyph glyph-name="B" unicode="B" horiz-adv-x="626" 
d="M17 0l110 700h264q108 0 165 -52t38 -150q-17 -93 -97 -141q42 -17 62 -58t10 -98q-15 -98 -91 -149.5t-184 -51.5h-277zM223 284l-22 -143h124q71 0 83 76q10 67 -67 67h-118zM363 556h-96l-22 -134h100q35 0 59.5 17t29.5 50q7 36 -11 51.5t-60 15.5z" />
    <glyph glyph-name="C" unicode="C" horiz-adv-x="534" 
d="M449 0h-200q-121 0 -176.5 60.5t-41.5 149.5l45 287q13 84 85.5 143.5t197.5 59.5h200l-23 -146h-200q-39 0 -65 -23.5t-32 -61.5l-39 -247q-5 -31 14.5 -54t56.5 -23h200z" />
    <glyph glyph-name="D" unicode="D" horiz-adv-x="650" 
d="M302 0h-285l110 700h285q125 0 178 -59.5t40 -143.5l-45 -287q-14 -90 -88 -150t-195 -60zM271 554l-65 -409h118q38 0 64.5 23t32.5 54l39 247q6 38 -12.5 61.5t-58.5 23.5h-118z" />
    <glyph glyph-name="E" unicode="E" horiz-adv-x="562" 
d="M464 0h-217q-120 0 -175 60t-41 150l45 287q13 84 85 143.5t196 59.5h217l-23 -146h-217q-39 0 -64.5 -23.5t-31.5 -61.5l-8 -47h259l-23 -145h-259l-8 -55q-5 -31 14 -54t56 -23h217z" />
    <glyph glyph-name="F" unicode="F" horiz-adv-x="540" 
d="M184 0h-167l81 512q14 88 74.5 138t157.5 50h241l-23 -146h-234q-42 0 -50 -43l-16 -102h211l-23 -145h-211z" />
    <glyph glyph-name="G" unicode="G" horiz-adv-x="629" 
d="M512 0h-266q-120 0 -174.5 60t-40.5 150l45 287q13 84 85 143.5t195 59.5h245l-23 -146h-245q-38 0 -63 -23.5t-31 -61.5l-39 -247q-5 -31 13.5 -54t54.5 -23h116l20 126h-97l23 142h247z" />
    <glyph glyph-name="H" unicode="H" horiz-adv-x="685" 
d="M293 700l-42 -267h220l42 267h165l-110 -700h-165l45 287h-220l-45 -287h-166l110 700h166z" />
    <glyph glyph-name="I" unicode="I" horiz-adv-x="300" 
d="M293 700l-110 -700h-166l110 700h166z" />
    <glyph glyph-name="J" unicode="J" horiz-adv-x="641" 
d="M634 700l-73 -463q-19 -117 -99.5 -181.5t-205.5 -64.5q-124 0 -187 65t-44 181l5 29h166l-5 -32q-9 -53 12.5 -73.5t76.5 -20.5q54 0 80.5 20t35.5 74l50 320h-341l23 146h506z" />
    <glyph glyph-name="K" unicode="K" horiz-adv-x="638" 
d="M294 700l-44 -280h54l186 280h186l-227 -314q56 -30 79 -147l50 -239h-186l-24 179q-9 54 -29.5 78t-55.5 24h-55l-44 -281h-167l110 700h167z" />
    <glyph glyph-name="L" unicode="L" horiz-adv-x="512" 
d="M207 145h248l-22 -145h-416l110 700h168z" />
    <glyph glyph-name="M" unicode="M" horiz-adv-x="912" 
d="M361 700l88 -466l233 466h223l-110 -700h-161l49 313q7 42 49 206h-2l-261 -519h-137l-96 519h-2q-4 -108 -19 -206l-49 -313h-149l110 700h234z" />
    <glyph glyph-name="N" unicode="N" horiz-adv-x="679" 
d="M232 497q2 -103 -16 -225l-43 -272h-156l110 700h204l93 -305q20 -59 31 -148h7q0 108 9 169l45 284h156l-110 -700h-186l-94 296q-25 82 -40 201h-10z" />
    <glyph glyph-name="O" unicode="O" horiz-adv-x="725" 
d="M682 349q-13 -81 -37 -142.5t-66.5 -111.5t-109.5 -76.5t-158 -26.5q-73 0 -125.5 17.5t-82 49.5t-45 76.5t-14.5 98.5t9 115q13 81 37.5 143t67 112.5t110 77t157.5 26.5t149 -27.5t84 -75.5t32 -113.5t-8 -142.5zM401 561q-40 0 -70.5 -12.5t-48.5 -30.5t-31.5 -49
t-19.5 -56.5t-12 -63.5t-8 -63t1.5 -56t15.5 -49t39 -30.5t67 -12.5t70.5 12.5t48.5 30.5t31.5 49t19.5 56t12 63q5 31 7 53t1.5 49t-8 44.5t-20.5 33.5t-37.5 24t-57.5 8z" />
    <glyph glyph-name="P" unicode="P" horiz-adv-x="630" 
d="M17 0l110 700h291q104 0 166 -65q57 -66 40 -174q-17 -101 -77 -158q-79 -80 -204 -80h-125l-35 -223h-166zM270 554l-29 -186h125q41 0 61 21q21 20 30 72q8 53 -12 76q-21 17 -50 17h-125z" />
    <glyph glyph-name="Q" unicode="Q" horiz-adv-x="721" 
d="M681 349q-30 -185 -121 -272l105 -114l-158 -82l-85 123q-51 -12 -112 -12q-73 0 -125.5 17.5t-82 49.5t-45 76.5t-14 98.5t9.5 115q13 81 37.5 143t66.5 112.5t109.5 77t157.5 26.5t149 -27.5t84 -75.5t32 -113.5t-8 -142.5zM400 561q-40 0 -70 -12.5t-48 -30.5t-31 -49
t-19 -56.5t-12 -63.5t-8.5 -63t1 -56t15.5 -49t38.5 -30.5t66.5 -12.5t71 12.5t49 30.5t31 49t19 56t12 63q5 31 7 53t1.5 49t-8 44.5t-20.5 33.5t-37.5 24t-57.5 8z" />
    <glyph glyph-name="R" unicode="R" horiz-adv-x="666" 
d="M486 279l92 -279h-193l-59 239h-104l-37 -239h-168l110 700h308q110 0 165 -65t35 -171q-13 -71 -55 -117.5t-94 -67.5zM272 554l-28 -176h128q39 0 65 24.5t31 64.5q14 87 -61 87h-135z" />
    <glyph glyph-name="S" unicode="S" horiz-adv-x="629" 
d="M571 554h-290q-31 0 -42 -65q-3 -21 1 -42.5t21 -21.5h125q218 0 183 -211q-14 -92 -81.5 -153t-168.5 -61h-295l22 145h295q53 0 63 69q11 65 -41 65h-126q-101 0 -141 60.5t-26 149.5q14 90 72 150.5t162 60.5h290z" />
    <glyph glyph-name="T" unicode="T" horiz-adv-x="541" 
d="M549 554h-157l-87 -554h-167l87 554h-159l23 146h483z" />
    <glyph glyph-name="U" unicode="U" horiz-adv-x="709" 
d="M702 700l-74 -470q-18 -114 -107 -176.5t-217 -62.5q-127 0 -198 63t-53 176l74 470h166l-73 -465q-8 -52 21 -73.5t87 -21.5q119 0 135 95l73 465h166z" />
    <glyph glyph-name="V" unicode="V" horiz-adv-x="672" 
d="M537 700h176l-321 -700h-210l-103 700h179l45 -349q11 -86 9 -172h5q27 92 65 172z" />
    <glyph glyph-name="W" unicode="W" horiz-adv-x="903" 
d="M256 700l17 -356q3 -35 1 -131h4q14 61 39 125l35 96q21 55 55 72.5t78 17.5q20 0 34.5 -3t31 -11t26 -27.5t10.5 -48.5l5 -96q4 -48 0 -125h4q29 96 41 131l132 356h175l-265 -700h-202l-12 342q-2 8 -7 8q-9 0 -11 -8l-120 -342h-199l-49 700h177z" />
    <glyph glyph-name="X" unicode="X" horiz-adv-x="632" 
d="M670 700l-267 -340l179 -360h-194l-88 216l-154 -216h-196l293 360l-160 340h190l72 -199l136 199h189z" />
    <glyph glyph-name="Y" unicode="Y" horiz-adv-x="631" 
d="M396 305l-48 -305h-164l48 305l-172 395h183l94 -246l172 246h182z" />
    <glyph glyph-name="Z" unicode="Z" horiz-adv-x="619" 
d="M613 554l-395 -409h330l-22 -145h-533l22 145l395 409h-330l23 146h533z" />
    <glyph glyph-name="bracketleft" unicode="[" horiz-adv-x="327" 
d="M131 722h231l-17 -109h-106l-100 -631h106l-17 -105h-231z" />
    <glyph glyph-name="backslash" unicode="\" horiz-adv-x="327" 
d="M60 700h112l94 -765h-114z" />
    <glyph glyph-name="bracketright" unicode="]" horiz-adv-x="325" 
d="M93 722h229l-134 -845h-229l17 105h102l100 631h-102z" />
    <glyph glyph-name="asciicircum" unicode="^" horiz-adv-x="582" 
d="M429 312l-94 285l-178 -285h-139l229 388h209l106 -388h-133z" />
    <glyph glyph-name="underscore" unicode="_" horiz-adv-x="533" 
d="M-71 -138l10 68h532l-10 -68h-532z" />
    <glyph glyph-name="grave" unicode="`" horiz-adv-x="296" 
d="M95 733h165l40 -208h-104z" />
    <glyph glyph-name="a" unicode="a" horiz-adv-x="542" 
d="M485 359l-56 -359h-268q-73 0 -111.5 37t-27.5 107l7 44q22 131 182 131h122l4 27q9 55 -48 55h-201l20 125h213q86 0 131.5 -42.5t32.5 -124.5zM316 212h-103q-38 0 -43 -34l-5 -28q-5 -35 35 -35h101z" />
    <glyph glyph-name="b" unicode="b" horiz-adv-x="554" 
d="M514 359l-30 -193q-13 -83 -71 -124.5t-146 -41.5h-255l110 700h152l-27 -174h103q87 0 132 -42t32 -125zM226 394l-42 -264h91q25 0 41.5 15t20.5 39l24 155q4 25 -7.5 40t-36.5 15h-91z" />
    <glyph glyph-name="c" unicode="c" horiz-adv-x="426" 
d="M54 359q13 83 71.5 125t146.5 42h152l-21 -132h-140q-24 0 -40.5 -15t-20.5 -39l-24 -153q-4 -25 7.5 -40t35.5 -15h140l-20 -132h-152q-88 0 -133 42.5t-32 125.5z" />
    <glyph glyph-name="d" unicode="d" 
d="M551 700l-110 -700h-262q-89 0 -129 44.5t-30 112.5l34 215q11 65 64 109.5t144 44.5h111l27 174h151zM310 130l42 264h-90q-25 0 -41.5 -15t-20.5 -40l-25 -159q-3 -20 9.5 -35t35.5 -15h90z" />
    <glyph glyph-name="e" unicode="e" horiz-adv-x="526" 
d="M24 168l34 213q11 68 61 106.5t118 38.5h113q73 0 111 -38t27 -107l-13 -80q-16 -100 -125 -100h-175l-3 -24q-10 -55 48 -55h202l-19 -122h-214q-88 0 -133 42.5t-32 125.5zM247 407q-39 0 -45 -36l-10 -65h124q19 0 22 19l7 46q6 36 -34 36h-64z" />
    <glyph glyph-name="f" unicode="f" horiz-adv-x="377" 
d="M324 707h115l-18 -117h-75q-30 0 -43.5 -15t-18.5 -49h95l-21 -132h-92l-62 -394h-150l62 394h-76l21 132h76q14 90 58 135.5t129 45.5z" />
    <glyph glyph-name="g" unicode="g" 
d="M524 526l-85 -534q-11 -72 -71.5 -120t-142.5 -48h-239l21 133h215q29 0 46.5 15t21.5 40l5 28h-112q-91 0 -129.5 45t-28.5 108l28 174q10 68 64 113.5t143 45.5h264zM351 394h-91q-23 0 -40 -15t-20 -35l-19 -118q-4 -25 7.5 -40t36.5 -15h91z" />
    <glyph glyph-name="h" unicode="h" horiz-adv-x="580" 
d="M527 359l-56 -359h-152l53 339q4 25 -7.5 40t-35.5 15h-104l-62 -394h-151l110 700h151l-27 -174h116q87 0 132.5 -42.5t32.5 -124.5z" />
    <glyph glyph-name="i" unicode="i" horiz-adv-x="275" 
d="M246 526l-83 -526h-151l83 526h151zM273 700l-18 -116h-151l18 116h151z" />
    <glyph glyph-name="j" unicode="j" horiz-adv-x="297" 
d="M266 526l-85 -535q-13 -83 -71.5 -125t-145.5 -42h-47l21 134h29q58 0 68 55l81 513h150zM293 700l-18 -116h-150l18 116h150z" />
    <glyph glyph-name="k" unicode="k" horiz-adv-x="537" 
d="M122 700h152l-59 -377h32l140 203h165l-172 -224q12 -6 21 -15.5t14.5 -22.5t8 -22t5.5 -25t4 -20l47 -197h-163l-22 145q-3 30 -19.5 44.5t-58.5 14.5h-21l-32 -204h-152z" />
    <glyph glyph-name="l" unicode="l" horiz-adv-x="276" 
d="M122 700h151l-110 -700h-151z" />
    <glyph glyph-name="m" unicode="m" horiz-adv-x="805" 
d="M486 394l-62 -394h-144l62 394h-123l-62 -394h-145l83 526h498q84 0 126.5 -42t29.5 -125l-56 -359h-146l53 340q4 24 -6.5 39t-33.5 15h-74z" />
    <glyph glyph-name="n" unicode="n" horiz-adv-x="580" 
d="M520 359l-56 -359h-152l53 339q8 55 -43 55h-97l-62 -394h-151l83 526h261q87 0 132 -42t32 -125z" />
    <glyph glyph-name="o" unicode="o" horiz-adv-x="566" 
d="M316 530q118 0 161 -43q60 -55 32 -224q-26 -170 -104 -226q-55 -42 -173 -42q-117 0 -162 42q-57 57 -31 226q27 168 103 224q56 43 174 43zM251 117q43 0 63 17q19 15 28.5 43.5t18.5 85.5q10 54 9 84t-15 45q-16 16 -58 16q-41 0 -63 -16q-20 -15 -29 -42t-19 -87
q-9 -54 -8.5 -84t15.5 -45q17 -17 58 -17z" />
    <glyph glyph-name="p" unicode="p" 
d="M-16 -176l111 702h263q88 0 128 -45.5t30 -113.5l-35 -216q-10 -64 -62 -107.5t-144 -43.5h-111l-28 -176h-152zM226 394l-42 -264h90q25 0 41.5 15t20.5 39l25 160q3 20 -9.5 35t-35.5 15h-90z" />
    <glyph glyph-name="q" unicode="q" 
d="M414 -176h-151l28 176h-111q-92 0 -131.5 43.5t-29.5 107.5l35 216q10 68 65 113.5t144 45.5h262zM353 394h-91q-23 0 -40 -15t-20 -35l-25 -160q-4 -24 7.5 -39t35.5 -15h91z" />
    <glyph glyph-name="r" unicode="r" horiz-adv-x="386" 
d="M68 359q13 83 71.5 125t145.5 42h115l-21 -132h-102q-25 0 -41 -14.5t-20 -39.5l-53 -340h-151z" />
    <glyph glyph-name="s" unicode="s" horiz-adv-x="501" 
d="M229 0h-213l19 126h217q30 0 38 40q3 16 -3 28t-22 12h-62q-89 0 -127 38t-24 123q11 74 62 116.5t140 42.5h205l-20 -126h-209q-16 0 -26 -11t-12 -27q-3 -17 3 -30t22 -13h62q91 0 128.5 -37t25.5 -122q-12 -75 -63.5 -117.5t-140.5 -42.5z" />
    <glyph glyph-name="t" unicode="t" horiz-adv-x="414" 
d="M69 168l37 232h-74l11 73q108 52 173 164h79l-17 -111h112l-20 -126h-112l-34 -213q-8 -55 43 -55h79l-20 -132h-92q-88 0 -133 42.5t-32 125.5z" />
    <glyph glyph-name="u" unicode="u" horiz-adv-x="580" 
d="M41 180l54 346h151l-56 -346q-3 -25 9 -39.5t36 -14.5h103l63 400h152l-83 -526h-268q-85 0 -130 48.5t-31 131.5z" />
    <glyph glyph-name="v" unicode="v" horiz-adv-x="573" 
d="M257 124q17 55 64 160l107 242h168l-262 -526h-195l-96 526h168l29 -242q13 -92 12 -160h5z" />
    <glyph glyph-name="w" unicode="w" horiz-adv-x="775" 
d="M201 526l10 -297q1 -26 -3 -93h3q11 39 30 91l50 128q29 86 115 86q85 0 92 -86l5 -128q4 -51 3 -91h4q16 67 26 93l104 297h149l-192 -526h-196l-11 285q0 9 -7 9t-9 -9l-100 -285h-194l-28 526h149z" />
    <glyph glyph-name="x" unicode="x" horiz-adv-x="529" 
d="M216 526l60 -138l102 138h184l-219 -248l146 -278h-182l-67 162l-117 -162h-183l233 278l-142 248h185z" />
    <glyph glyph-name="y" unicode="y" horiz-adv-x="569" 
d="M94 526h152l-48 -300q-4 -25 7.5 -40t36.5 -15h90l56 355h153l-83 -524q-13 -84 -73.5 -131t-146.5 -47h-234l21 133h213q29 0 46.5 15t21.5 40l5 28h-111q-90 0 -129.5 45t-29.5 108z" />
    <glyph glyph-name="z" unicode="z" horiz-adv-x="496" 
d="M190 132h228l-20 -132h-400l20 132l269 262h-227l21 132h400l-21 -132z" />
    <glyph glyph-name="braceleft" unicode="{" horiz-adv-x="301" 
d="M31 29l27 170q5 29 -7.5 39.5t-42.5 10.5l16 100q31 0 46 9.5t20 39.5l27 171q10 66 54.5 109.5t130.5 43.5h44l-17 -109h-44q-42 0 -50 -51l-27 -167q-12 -79 -76 -98q27 -6 39.5 -30t6.5 -64l-27 -167q-7 -54 34 -54h44l-17 -105h-44q-86 0 -116.5 44t-20.5 108z" />
    <glyph glyph-name="braceright" unicode="}" horiz-adv-x="302" 
d="M178 29q-10 -64 -55 -108t-129 -44h-44l16 105h45q41 0 48 54l27 167q13 83 75 94q-57 18 -45 98l27 167q8 51 -32 51h-45l17 109h45q84 0 115 -43.5t21 -109.5l-27 -171q-5 -30 7.5 -39.5t43.5 -9.5l-16 -100q-30 0 -46 -10.5t-21 -39.5z" />
    <glyph glyph-name="asciitilde" unicode="~" horiz-adv-x="583" 
d="M29 322q81 81 159 95q67 13 131 -22q75 -35 124 -15q23 8 62 43l57 -56q-56 -76 -128.5 -98.5t-150.5 18.5q-102 53 -197 -24z" />
    <glyph glyph-name="currency" unicode="&#xa4;" horiz-adv-x="642" 
d="M211 1h-167l13 86h-84l11 70h84l86 543h280q98 0 163 -65q56 -64 39 -173q-15 -98 -76 -155q-75 -78 -200 -78h-113l-12 -72h77l-11 -70h-77zM411 555h-113l-29 -185h113q38 0 60 18q20 21 28 74q9 57 -12 73q-15 20 -47 20z" />
    <glyph glyph-name="guillemotleft" unicode="&#xab;" horiz-adv-x="532" 
d="M244 44h-152l-72 217l142 219h152l-146 -219zM469 44h-153l-75 217l145 219h153l-147 -219z" />
    <glyph glyph-name="degree" unicode="&#xb0;" horiz-adv-x="364" 
d="M246 725q64 0 101.5 -45t27.5 -109q-11 -65 -62 -109.5t-115 -44.5q-63 0 -101 45t-28 109t62 109t115 45zM231 630q-24 0 -43.5 -17.5t-23.5 -41.5t10 -41t39 -17t45 17t24 41t-11 41.5t-40 17.5z" />
    <glyph glyph-name="plusminus" unicode="&#xb1;" horiz-adv-x="498" 
d="M493 473l-19 -123h-156l-25 -160h-127l25 160h-157l19 123h157l26 160h127l-26 -160h156zM438 125l-19 -124h-440l19 124h440z" />
    <glyph glyph-name="paragraph" unicode="&#xb6;" horiz-adv-x="739" 
d="M558 571h-143l-121 -764h-156l91 578h-39q-71 0 -108.5 44.5t-26.5 111.5q9 69 61.5 114t123.5 45h492l-141 -893h-154zM209 500h39l11 71h-39q-31 0 -38 -36q-2 -13 6 -24t21 -11z" />
    <glyph glyph-name="guillemotright" unicode="&#xbb;" horiz-adv-x="529" 
d="M351 44h-151l144 217l-74 219h151l70 -219zM126 44h-151l143 217l-73 219h151l77 -219z" />
    <glyph glyph-name="afii10023" unicode="&#x401;" horiz-adv-x="563" 
d="M465 0h-216q-120 0 -176 60.5t-42 149.5l45 286q14 86 86 145t197 59h216l-22 -144h-216q-40 0 -66.5 -24t-32.5 -62l-8 -47h259l-23 -146h-259l-8 -54q-5 -32 15 -55t57 -23h216zM343 761h-140l20 127h140zM557 761h-142l20 127h142z" />
    <glyph glyph-name="afii10017" unicode="&#x410;" horiz-adv-x="675" 
d="M138 0h-169l244 601q24 58 69 84t117 26q73 0 110 -26t43 -84l54 -601h-169l-9 117h-246zM378 577q-13 0 -17.5 -4t-8.5 -15l-113 -297h180l-20 297q0 10 -4 14.5t-17 4.5z" />
    <glyph glyph-name="afii10018" unicode="&#x411;" horiz-adv-x="632" 
d="M588 556h-317l-19 -119h122q108 0 164.5 -58.5t38.5 -161.5q-18 -101 -92.5 -159t-179.5 -58h-288l110 700h483zM327 145q75 0 84 78q5 37 -8 53.5t-52 16.5h-122l-24 -148h122z" />
    <glyph glyph-name="afii10019" unicode="&#x412;" horiz-adv-x="625" 
d="M17 0l110 700h262q108 0 165.5 -52t38.5 -151q-15 -90 -97 -138q42 -17 62 -58.5t10 -99.5q-17 -98 -92 -149.5t-183 -51.5h-276zM222 285l-23 -144h125q72 0 83 77q11 67 -67 67h-118zM362 558h-97l-22 -135h101q35 0 59.5 17t29.5 50q6 36 -11.5 52t-59.5 16z" />
    <glyph glyph-name="afii10020" unicode="&#x413;" horiz-adv-x="509" 
d="M270 556l-88 -556h-165l110 700h413l-22 -144h-248z" />
    <glyph glyph-name="afii10021" unicode="&#x414;" horiz-adv-x="721" 
d="M655 145l-44 -281h-153l9 136h-333l-32 -136h-154l43 281q25 0 43 10t31 31.5t19.5 37.5t15.5 46q17 54 35.5 124t29.5 117.5t25.5 112.5t16.5 76h475l-88 -555h61zM427 145l66 411h-155q-3 -11 -32.5 -123t-52 -183.5t-42.5 -104.5h216z" />
    <glyph glyph-name="afii10022" unicode="&#x415;" horiz-adv-x="560" 
d="M462 0h-216q-121 0 -175 60t-40 150l45 286q14 86 85 145t195 59h216l-22 -144h-216q-38 0 -64.5 -24t-32.5 -62l-8 -47h259l-23 -146h-259l-8 -54q-5 -32 14.5 -55t55.5 -23h216z" />
    <glyph glyph-name="afii10024" unicode="&#x416;" horiz-adv-x="966" 
d="M622 700l-44 -278h50l185 278h187l-227 -314q22 -12 39 -41t23 -50.5t14 -55.5l57 -239h-187l-28 179q-10 55 -29.5 79.5t-54.5 24.5h-51l-44 -283h-159l44 283h-50q-70 0 -117 -104l-83 -179h-187l130 239q20 35 33 56t39.5 50t53.5 41l-130 314h186l99 -278h48l44 278
h159z" />
    <glyph glyph-name="afii10025" unicode="&#x417;" horiz-adv-x="558" 
d="M100 700h227q108 0 162.5 -51.5t35.5 -151.5q-15 -86 -98 -138q40 -17 59.5 -58.5t9.5 -99.5q-15 -99 -88 -150t-181 -51h-237l22 145h237q40 0 60 18t25 55q11 67 -67 67h-175l22 140h157q77 0 88 65q6 36 -11.5 51t-59.5 15h-210z" />
    <glyph glyph-name="afii10026" unicode="&#x418;" horiz-adv-x="669" 
d="M662 700l-110 -700h-158l51 325q10 63 28 112h-3q-35 -61 -63 -101l-234 -336h-156l110 700h156l-51 -325q-7 -45 -28 -117h3q35 67 67 111l230 331h158z" />
    <glyph glyph-name="afii10027" unicode="&#x419;" horiz-adv-x="670" 
d="M385 826h60q15 0 29 12.5t17 27.5h106q-9 -57 -51 -89.5t-96 -32.5h-96q-54 0 -85 32.5t-22 89.5h107q-3 -15 6.5 -27.5t24.5 -12.5zM663 700l-110 -700h-157l51 325q9 60 27 112h-4q-33 -63 -62 -101l-234 -336h-157l110 700h157l-51 -325q-7 -45 -28 -117h2
q36 65 69 111l230 331h157z" />
    <glyph glyph-name="afii10028" unicode="&#x41a;" horiz-adv-x="638" 
d="M294 700l-44 -278h53l187 278h187l-229 -314q54 -27 79 -147l51 -239h-187l-23 179q-13 104 -85 104h-55l-44 -283h-167l110 700h167z" />
    <glyph glyph-name="afii10029" unicode="&#x41b;" horiz-adv-x="668" 
d="M386 0l88 556h-153q-8 -30 -29.5 -117.5t-40 -159.5t-28.5 -98q-43 -111 -95.5 -150t-168.5 -37l23 145q48 -1 70.5 28t35.5 82q49 180 110 451h463l-110 -700h-165z" />
    <glyph glyph-name="afii10030" unicode="&#x41c;" horiz-adv-x="914" 
d="M364 700l86 -467l233 467h224l-110 -700h-160l49 314q14 85 48 205h-1l-261 -519h-138l-97 519h-2q-4 -120 -18 -205l-49 -314h-151l110 700h237z" />
    <glyph glyph-name="afii10031" unicode="&#x41d;" horiz-adv-x="686" 
d="M294 700l-42 -268h219l42 268h166l-110 -700h-166l45 287h-219l-45 -287h-167l110 700h167z" />
    <glyph glyph-name="afii10032" unicode="&#x41e;" horiz-adv-x="723" 
d="M680 350q-13 -82 -36.5 -143t-65.5 -111t-109 -76t-158 -26t-150.5 27t-84.5 74.5t-31.5 113t8.5 141.5q13 82 37.5 143.5t66.5 111.5t109 76t157 26t149 -27t84.5 -74.5t32 -113t-8.5 -142.5zM401 562q-40 0 -70 -12.5t-48 -30.5t-31.5 -49t-19.5 -56.5t-12 -63.5
q-5 -31 -7 -52.5t-2 -48.5t7 -44.5t20.5 -33.5t37.5 -24t58 -8q40 0 70.5 12.5t48.5 30.5t31 49t19 56t12 63t8 64t-1.5 56.5t-15.5 48.5t-38.5 30.5t-66.5 12.5z" />
    <glyph glyph-name="afii10033" unicode="&#x41f;" horiz-adv-x="670" 
d="M272 556l-88 -556h-167l110 700h536l-110 -700h-167l88 556h-202z" />
    <glyph glyph-name="afii10034" unicode="&#x420;" horiz-adv-x="628" 
d="M17 0l110 700h291q105 0 164 -66q57 -63 40 -171q-17 -100 -75 -160q-80 -80 -204 -80h-124l-35 -223h-167zM272 556l-30 -188h124q40 0 60 21q22 20 30 74q8 51 -11 75q-18 18 -49 18h-124z" />
    <glyph glyph-name="afii10035" unicode="&#x421;" horiz-adv-x="533" 
d="M448 0h-198q-122 0 -177.5 60t-41.5 150l45 286q14 86 86 145t198 59h198l-22 -144h-198q-40 0 -66 -23.5t-32 -62.5l-39 -247q-6 -32 13 -55t58 -23h198z" />
    <glyph glyph-name="afii10036" unicode="&#x422;" horiz-adv-x="538" 
d="M547 556h-160l-88 -556h-164l88 556h-156l22 144h480z" />
    <glyph glyph-name="afii10037" unicode="&#x423;" horiz-adv-x="619" 
d="M92 145h110q41 0 62.5 19.5t36.5 58.5h-27q-62 0 -96 31t-46 93l-62 353h177l37 -301q2 -18 11 -24.5t32 -6.5h32l131 332h179l-211 -491q-49 -114 -107.5 -161.5t-170.5 -47.5h-110z" />
    <glyph glyph-name="afii10038" unicode="&#x424;" horiz-adv-x="833" 
d="M547 646h82q111 0 164 -61.5t36 -168.5q-17 -110 -88.5 -172.5t-185.5 -62.5h-82l-28 -181h-159l28 181h-83q-113 0 -163.5 62.5t-33.5 172.5q17 107 89.5 168.5t181.5 61.5h83l16 102h159zM336 317l30 193h-87q-73 0 -88 -91q-8 -49 3.5 -75.5t54.5 -26.5h87zM495 317
h85q45 0 64 26t27 76q15 91 -61 91h-85z" />
    <glyph glyph-name="afii10039" unicode="&#x425;" horiz-adv-x="630" 
d="M668 700l-266 -340l178 -360h-196l-86 217l-153 -217h-195l291 360l-159 340h188l73 -199l136 199h189z" />
    <glyph glyph-name="afii10040" unicode="&#x426;" horiz-adv-x="702" 
d="M408 145l88 555h165l-88 -555h63l-44 -281h-152l8 136h-431l110 700h166l-88 -555h203z" />
    <glyph glyph-name="afii10041" unicode="&#x427;" horiz-adv-x="659" 
d="M542 0h-167l40 253h-113q-117 0 -176.5 60.5t-42.5 167.5l34 219h165l-34 -219q-14 -88 76 -88h113l48 307h167z" />
    <glyph glyph-name="afii10042" unicode="&#x428;" horiz-adv-x="1021" 
d="M904 0h-887l110 700h166l-88 -555h195l88 555h166l-88 -555h195l88 555h165z" />
    <glyph glyph-name="afii10043" unicode="&#x429;" horiz-adv-x="1053" 
d="M926 145h61l-44 -281h-151l8 136h-783l110 700h166l-88 -555h195l88 555h165l-88 -555h195l88 555h166z" />
    <glyph glyph-name="afii10044" unicode="&#x42a;" horiz-adv-x="703" 
d="M183 556h-126l22 144h290l-39 -251h125q108 0 164.5 -62.5t37.5 -167.5q-16 -100 -91.5 -159.5t-181.5 -59.5h-289zM406 141q73 0 87 84q10 82 -61 82h-125l-26 -166h125z" />
    <glyph glyph-name="afii10045" unicode="&#x42b;" horiz-adv-x="870" 
d="M863 700l-110 -700h-166l110 700h166zM127 700h165l-39 -251h116q106 0 163 -63t38 -167q-17 -100 -92.5 -159.5t-179.5 -59.5h-281zM320 141q70 0 84 84q14 82 -58 82h-116l-26 -166h116z" />
    <glyph glyph-name="afii10046" unicode="&#x42c;" horiz-adv-x="627" 
d="M127 700h167l-39 -251h125q107 0 163 -62.5t38 -167.5q-18 -100 -93 -159.5t-179 -59.5h-292zM331 141q72 0 84 84q14 82 -58 82h-125l-26 -166h125z" />
    <glyph glyph-name="afii10047" unicode="&#x42d;" 
d="M-12 0l22 145h215q39 0 65 23t32 55l8 54h-257l23 146h257l8 47q6 39 -12 62.5t-58 23.5h-215l22 144h215q127 0 180.5 -59t39.5 -145l-45 -286q-14 -90 -89 -150t-196 -60h-215z" />
    <glyph glyph-name="afii10048" unicode="&#x42e;" horiz-adv-x="1004" 
d="M357 423q33 136 115 210t235 74q89 0 147.5 -27t83.5 -75t31.5 -113.5t-8.5 -141.5q-13 -81 -37 -142.5t-65.5 -112t-108 -77t-156.5 -26.5q-155 0 -212.5 74.5t-47.5 210.5h-107l-43 -277h-167l110 700h167l-44 -277h107zM685 562q-40 0 -70 -13t-47.5 -30.5
t-30.5 -49.5t-18.5 -56t-11.5 -63q-5 -33 -7.5 -53t-3 -48.5t6 -45t19.5 -33.5t37 -25t58 -8q40 0 70.5 13t48 31t30.5 49.5t19 56t12 63.5q7 55 9 102t-27.5 78.5t-93.5 31.5z" />
    <glyph glyph-name="afii10049" unicode="&#x42f;" horiz-adv-x="655" 
d="M157 277q-45 19 -71.5 67t-17.5 121q14 107 89 171t185 64h306l-110 -700h-166l37 239h-103l-133 -239h-194zM460 556h-135q-76 0 -90 -92q-6 -39 11.5 -62.5t55.5 -23.5h129z" />
    <glyph glyph-name="afii10065" unicode="&#x430;" horiz-adv-x="544" 
d="M488 359l-56 -359h-269q-73 0 -111 37t-27 107l8 46q20 129 180 129h122l4 27q10 55 -49 55h-201l20 125h214q88 0 133 -42t32 -125zM318 214h-104q-38 0 -43 -36l-5 -28q-5 -35 35 -35h102z" />
    <glyph glyph-name="afii10066" unicode="&#x431;" horiz-adv-x="542" 
d="M184 182q-8 -58 45 -58h40q52 0 62 53l16 106q9 52 -44 52h-94zM229 458h102q87 0 133 -41.5t32 -126.5l-19 -122q-14 -85 -72.5 -126.5t-145.5 -41.5h-71q-77 0 -123.5 49t-34.5 125l48 304q7 46 24.5 81t39 55t50 33.5t52.5 19t52 8.5l168 15q65 8 82 22l-20 -128
q-18 -13 -61 -15l-142 -9q-38 -3 -60.5 -18.5t-28.5 -52.5z" />
    <glyph glyph-name="afii10067" unicode="&#x432;" horiz-adv-x="530" 
d="M95 526h247q74 0 112.5 -32t27.5 -102l-6 -35q-5 -27 -24 -52t-44 -35v-3q33 -10 49.5 -36.5t10.5 -63.5l-4 -22q-11 -70 -61 -107.5t-123 -37.5h-268zM305 411h-82l-15 -93h83q39 0 44 35l4 22q5 36 -34 36zM191 211l-15 -96h101q40 0 46 37l3 24q6 35 -33 35h-102z" />
    <glyph glyph-name="afii10068" unicode="&#x433;" horiz-adv-x="498" 
d="M170 0q-88 0 -125.5 49t-26.5 126q14 84 61 114t140 30h64q31 0 40 43q4 38 -28 38h-209l19 126h207q87 0 123.5 -48.5t24.5 -124.5q-13 -84 -60 -115.5t-140 -31.5h-62q-30 0 -39 -40q-2 -17 5 -28.5t21 -11.5h217l-20 -126h-212z" />
    <glyph glyph-name="afii10069" unicode="&#x434;" horiz-adv-x="624" 
d="M173 123h178l44 280h-120q-4 -16 -13 -49.5t-12 -47.5q-42 -160 -77 -183zM568 526l-64 -403h55l-40 -255h-133l8 132h-274l-34 -132h-139l37 241q19 6 34.5 16t27.5 25.5t20.5 28.5t16.5 35.5t12 34.5t11 37t9 33q19 69 51 207h402z" />
    <glyph glyph-name="afii10070" unicode="&#x435;" horiz-adv-x="508" 
d="M14 167l34 215q11 68 61 106t119 38h114q73 0 111 -37t27 -107l-13 -80q-15 -102 -124 -102h-178l-4 -24q-8 -54 51 -54h208l-19 -122h-221q-88 0 -133.5 42t-32.5 125zM239 408q-41 0 -47 -36l-10 -65h127q18 0 21 18l7 47q6 36 -34 36h-64z" />
    <glyph glyph-name="afii10072" unicode="&#x436;" horiz-adv-x="783" 
d="M352 526h146l-32 -202h25l144 202h155l-177 -223q46 -23 63 -104l47 -199h-162l-22 146q-7 31 -23 45.5t-58 14.5h-11l-32 -206h-146l32 206h-14q-42 0 -63.5 -15t-33.5 -45l-68 -146h-162l108 199q45 82 95 104l-105 223h156l78 -202h28z" />
    <glyph glyph-name="afii10073" unicode="&#x437;" horiz-adv-x="451" 
d="M71 526h194q74 0 113 -32t28 -102l-6 -35q-5 -27 -24 -52t-44 -35v-3q65 -20 52 -100l-4 -22q-11 -71 -60.5 -108t-123.5 -37h-208l19 122h189q40 0 46 36l2 18q6 35 -32 35h-138l17 107h123q38 0 43 35l4 22q5 36 -33 36h-175z" />
    <glyph glyph-name="afii10074" unicode="&#x438;" horiz-adv-x="592" 
d="M43 180l56 346h150l-55 -346q-4 -25 7.5 -39.5t36.5 -14.5h104l63 400h152l-85 -526h-267q-85 0 -130 48.5t-32 131.5z" />
    <glyph glyph-name="afii10075" unicode="&#x439;" horiz-adv-x="593" 
d="M331 642h41q16 0 28 12.5t14 28.5h95q-9 -51 -45 -82.5t-97 -31.5h-54q-60 0 -87.5 31.5t-18.5 82.5h95q-3 -15 5 -28t24 -13zM44 180l54 346h151l-56 -346q-3 -25 9 -39.5t36 -14.5h103l63 400h152l-83 -526h-268q-85 0 -130 48.5t-31 131.5z" />
    <glyph glyph-name="afii10076" unicode="&#x43a;" horiz-adv-x="538" 
d="M95 526h150l-32 -202h33l140 202h164l-171 -223q12 -6 21 -15.5t15 -23.5t8.5 -21t6.5 -25t4 -19l44 -199h-161l-21 146q-6 31 -22.5 45.5t-58.5 14.5h-21l-32 -206h-150z" />
    <glyph glyph-name="afii10077" unicode="&#x43b;" horiz-adv-x="592" 
d="M273 394q-3 -14 -13.5 -59.5t-16.5 -69.5t-17 -61t-23 -66q-22 -54 -50.5 -85.5t-69.5 -45.5q-40 -13 -124 -8l20 124q37 -2 54 8q36 23 56 92q6 25 35.5 152t35.5 151h403l-83 -526h-151l62 394h-118z" />
    <glyph glyph-name="afii10078" unicode="&#x43c;" horiz-adv-x="765" 
d="M299 526l45 -268q10 -49 10 -106h4q15 54 41 106l131 268h204l-83 -526h-131l37 235q10 67 38 157h-3l-192 -392h-136l-67 392h-3q-5 -109 -12 -157l-37 -235h-131l83 526h202z" />
    <glyph glyph-name="afii10079" unicode="&#x43d;" horiz-adv-x="584" 
d="M555 526l-83 -526h-151l31 199h-157l-31 -199h-152l83 526h152l-31 -195h157l31 195h151z" />
    <glyph glyph-name="afii10080" unicode="&#x43e;" horiz-adv-x="569" 
d="M319 531q117 0 162 -41q34 -33 40 -94t-9 -134q-14 -84 -36.5 -139t-66.5 -86q-57 -41 -175 -41q-117 0 -162 41q-60 56 -33 225t105 228q60 41 175 41zM253 117q44 0 65 17q19 14 28.5 42.5t18.5 85.5q10 55 9 85.5t-15 44.5q-14 17 -60 17q-43 0 -63 -17
q-19 -14 -28 -41.5t-19 -88.5q-9 -52 -8.5 -83t14.5 -45q16 -17 58 -17z" />
    <glyph glyph-name="afii10081" unicode="&#x43f;" horiz-adv-x="580" 
d="M523 359l-56 -359h-152l53 339q8 55 -43 55h-97l-62 -394h-151l83 526h261q87 0 132 -42t32 -125z" />
    <glyph glyph-name="afii10082" unicode="&#x440;" horiz-adv-x="556" 
d="M-16 -175l111 701h262q89 0 128.5 -45t29.5 -114l-35 -216q-10 -63 -62 -107t-144 -44h-111l-28 -175h-151zM225 395l-42 -264h91q25 0 41 15t20 41l25 158q3 20 -9.5 35t-34.5 15h-91z" />
    <glyph glyph-name="afii10083" unicode="&#x441;" horiz-adv-x="429" 
d="M55 360q13 83 71.5 124.5t146.5 41.5h154l-21 -132h-142q-52 0 -62 -54l-24 -155q-4 -25 7.5 -39.5t36.5 -14.5h142l-20 -131h-154q-88 0 -133.5 42t-32.5 125z" />
    <glyph glyph-name="afii10084" unicode="&#x442;" horiz-adv-x="811" 
d="M490 394l-61 -394h-145l63 394h-123l-63 -394h-146l85 526h498q81 0 124 -48t30 -131l-55 -347h-144l54 340q4 24 -7 39t-35 15h-75z" />
    <glyph glyph-name="afii10085" unicode="&#x443;" horiz-adv-x="542" 
d="M178 -32l15 32q-91 1 -101 98l-49 428h150l44 -395h11l160 395h157l-241 -566q-32 -75 -71.5 -114.5t-109.5 -39.5h-86l21 133h51q14 0 28.5 8.5t20.5 20.5z" />
    <glyph glyph-name="afii10086" unicode="&#x444;" horiz-adv-x="832" 
d="M542 638l-18 -112h109q89 0 128.5 -45t29.5 -114l-35 -216q-10 -63 -62.5 -107t-143.5 -44h-109l-28 -175h-152l28 175h-110q-91 0 -130.5 44t-29.5 107l35 216q10 68 64.5 113.5t143.5 45.5h110l18 112h152zM503 395l-42 -264h94q25 0 41.5 15t20.5 41l25 158
q3 20 -9.5 35t-35.5 15h-94zM309 131l42 264h-96q-24 0 -41.5 -15t-20.5 -35l-25 -158q-4 -26 8 -41t37 -15h96z" />
    <glyph glyph-name="afii10087" unicode="&#x445;" horiz-adv-x="534" 
d="M217 526l60 -137l103 137h186l-222 -250l150 -276h-187l-66 162l-117 -162h-184l234 276l-143 250h186z" />
    <glyph glyph-name="afii10088" unicode="&#x446;" horiz-adv-x="624" 
d="M178 132h167l63 394h148l-63 -394h58l-41 -264h-133l8 132h-373l83 526h146z" />
    <glyph glyph-name="afii10089" unicode="&#x447;" horiz-adv-x="561" 
d="M86 526h151l-29 -180q-4 -24 8 -39.5t36 -15.5h92l37 235h151l-83 -526h-151l25 160h-113q-91 0 -129 48t-28 114z" />
    <glyph glyph-name="afii10090" unicode="&#x448;" horiz-adv-x="862" 
d="M179 123h147l64 403h147l-64 -403h148l64 403h146l-83 -526h-736l83 526h148z" />
    <glyph glyph-name="afii10091" unicode="&#x449;" horiz-adv-x="897" 
d="M177 123h147l64 403h147l-64 -403h148l64 403h148l-64 -403h60l-40 -255h-135l10 132h-651l83 526h147z" />
    <glyph glyph-name="afii10092" unicode="&#x44a;" horiz-adv-x="569" 
d="M122 394h-91l21 132h237l-29 -181h109q73 0 117.5 -42.5t33.5 -111.5l-6 -38q-11 -70 -68.5 -111.5t-130.5 -41.5h-255zM242 229l-18 -114h90q52 0 59 45l4 24q4 24 -6.5 34.5t-38.5 10.5h-90z" />
    <glyph glyph-name="afii10093" unicode="&#x44b;" horiz-adv-x="730" 
d="M701 526l-83 -526h-152l83 526h152zM95 526h147l-29 -181h97q74 0 117.5 -42.5t32.5 -111.5l-6 -38q-11 -70 -67.5 -111.5t-130.5 -41.5h-244zM195 229l-18 -114h77q53 0 60 45l4 24q4 24 -6.5 34.5t-39.5 10.5h-77z" />
    <glyph glyph-name="afii10094" unicode="&#x44c;" horiz-adv-x="519" 
d="M95 526h146l-29 -181h108q73 0 117 -42.5t33 -111.5l-6 -38q-11 -70 -68 -111.5t-130 -41.5h-254zM194 229l-18 -114h90q51 0 58 45l4 24q4 24 -6.5 34.5t-37.5 10.5h-90z" />
    <glyph glyph-name="afii10095" unicode="&#x44d;" horiz-adv-x="456" 
d="M415 360l-31 -193q-13 -83 -72 -125t-147 -42h-172l19 123h160q25 0 41.5 15t20.5 39l5 32h-155l17 113h155l5 27q4 24 -8 39t-37 15h-160l20 123h172q88 0 134 -41.5t33 -124.5z" />
    <glyph glyph-name="afii10096" unicode="&#x44e;" horiz-adv-x="799" 
d="M242 526l-33 -204h72q31 121 95 166q59 43 175 43q112 0 157 -44q60 -59 34 -225q-27 -170 -104 -224q-57 -42 -172 -42q-118 0 -161 43q-53 45 -41 170h-72l-33 -209h-147l83 526h147zM485 117q38 0 62 18q30 25 46 127q17 102 -8 128q-17 19 -54 19q-41 0 -65 -18
q-18 -14 -27 -42t-19 -87q-9 -52 -8.5 -82t14.5 -45q18 -18 59 -18z" />
    <glyph glyph-name="afii10097" unicode="&#x44f;" 
d="M441 0h-146l30 194h-60l-118 -194h-163l149 215q-102 27 -85 130l6 37q11 70 61 107t122 37h287zM343 307l17 104h-119q-42 0 -48 -42l-3 -19q-4 -21 7.5 -32t31.5 -11h114z" />
    <glyph glyph-name="afii10071" unicode="&#x451;" horiz-adv-x="526" 
d="M24 166l34 215q11 69 59.5 107t118.5 38h114q73 0 111 -37t27 -108l-13 -81q-16 -100 -123 -100h-178l-4 -24q-8 -55 51 -55h208l-19 -121h-221q-87 0 -132.5 42t-32.5 124zM249 408q-42 0 -48 -38l-10 -65h126q18 0 21 19l7 46q4 21 -5 29.5t-28 8.5h-63zM297 701
l-18 -113h-131l18 113h131zM479 701l-18 -113h-129l18 113h129z" />
    <glyph glyph-name="endash" unicode="&#x2013;" horiz-adv-x="472" 
d="M447 343l-21 -133h-414l21 133h414z" />
    <glyph glyph-name="emdash" unicode="&#x2014;" horiz-adv-x="762" 
d="M735 332l-13 -83h-704l13 83h704z" />
    <glyph glyph-name="quoteleft" unicode="&#x2018;" horiz-adv-x="270" 
d="M228 525h-166l143 275h103z" />
    <glyph glyph-name="quoteright" unicode="&#x2019;" horiz-adv-x="272" 
d="M138 700h165l-145 -277h-104z" />
    <glyph glyph-name="quotedblleft" unicode="&#x201c;" horiz-adv-x="459" 
d="M418 525h-169l147 275h101zM228 525h-166l143 275h103z" />
    <glyph glyph-name="quotedblright" unicode="&#x201d;" horiz-adv-x="459" 
d="M137 700h163l-143 -277h-103zM326 700h164l-145 -277h-102z" />
    <glyph glyph-name="bullet" unicode="&#x2022;" horiz-adv-x="444" 
d="M246 461q62 0 96.5 -43.5t24.5 -105.5t-58 -104.5t-110 -42.5t-98 42.5t-26 104.5t59.5 105.5t111.5 43.5z" />
    <glyph glyph-name="ellipsis" unicode="&#x2026;" horiz-adv-x="743" 
d="M13 160h165l-25 -159h-165zM262 160h168l-25 -159h-168zM512 160h168l-25 -159h-168z" />
    <glyph glyph-name="Euro" unicode="&#x20ac;" horiz-adv-x="577" 
d="M512 146l-23 -145h-179q-121 0 -176 59t-41 150l3 19h-100l37 93h77l7 41h-65l35 91h44l7 41q13 86 85 145.5t197 59.5h179l-23 -145h-179q-40 0 -64.5 -23t-30.5 -62l-3 -16h233l-36 -91h-211l-7 -41h201l-34 -93h-181l-1 -7q-5 -32 14 -54t56 -22h179z" />
    <glyph glyph-name="afii61352" unicode="&#x2116;" horiz-adv-x="950" 
d="M231 464h-3q2 -85 -15 -190l-43 -273h-153l110 699h204l133 -441h4q-9 70 11 193l39 248h152l-110 -699h-191zM960 562q-11 -69 -45 -107t-107 -38q-69 0 -90 38t-10 107q11 70 43.5 107t101.5 37q73 0 95.5 -37t11.5 -107zM842 633q-30 0 -41.5 -18.5t-16.5 -52.5
q-13 -72 35 -72q17 0 29 6t18.5 18t9.5 22t6 26q2 19 2.5 35t-9.5 26t-33 10zM678 317l11 71h226l-11 -71h-226z" />
    </font>
</defs>
</svg>
